<?xml version="1.0" encoding="utf-8"?>
<!-- Generator: Adobe Illustrator 20.1.0, SVG Export Plug-In . SVG Version: 6.00 Build 0)  -->
<svg version="1.1" id="Layer_1" xmlns="http://www.w3.org/2000/svg" xmlns:xlink="http://www.w3.org/1999/xlink" x="0px" y="0px"
	 viewBox="0 0 1920 1080" style="enable-background:new 0 0 1920 1080;" xml:space="preserve">
<style type="text/css">
	.st0{fill:#57DADD;}
	.st1{fill:#FFFFFF;}
	.st2{fill:#FFFFFF;stroke:#FFFFFF;stroke-width:3;stroke-miterlimit:10;}
	.st3{fill:none;stroke:#FFFFFF;stroke-width:2;stroke-miterlimit:10;}
	.st4{fill:#FFFFFF;stroke:#9FFFA6;stroke-miterlimit:10;}
	.st5{fill:#FFFFFF;stroke:#9FFFA6;stroke-width:3;stroke-miterlimit:10;}
	.st6{fill:none;stroke:#9FFFA6;stroke-width:2;stroke-miterlimit:10;}
	.st7{fill:none;stroke:#9FFFA6;stroke-miterlimit:10;}
</style>
<g>
	<path class="st0" d="M1089.1,1036.6c41.5-2.8,164.8-17.7,230-34l133.1-46.3c58.7-12.4,178.8-35.3,234.6-112.3l19.5-124
		c1.1-3.2,11.5,0,0,0l31.5-243.1c0.1-0.6,0.1-1.3,0.1-1.9c0-24.4-0.1-0.5,0-1.3c1-15.7,0,1.3,0-1.7c0-29.6,1.1-52-1.7-72.5
		l-14-240.5l6.7,259c0,3-6,3-6,0c0-64.5-42.2-222.6-50-255c-3.3-13.5-3-14-10-32L1613.8,0H1920v1080H938.1l41.5-17
		c23.5-18.8,43.5-16.3,53.4-18.8"/>
</g>
<g>
	<g>
		<circle class="st1" cx="1824.4" cy="756.5" r="8.9"/>
		<path class="st1" d="M1838.2,798.4h-26.2c-0.6,0-1.1-0.6-1.1-1.3V772c0-4.2,2.8-7.1,6.3-6.6l0,0l4.6,1.4c1.4,0.4,2.8,0.5,4.2,0.1
			l5.1-1.2c2.2-0.5,4.6,0.3,6.1,2.3c0.9,1.3,1.5,3,1.5,4.9v24.9C1838.7,798.1,1838.5,798.4,1838.2,798.4z"/>
		<path class="st1" d="M1817.4,798.4h-1.8v-13.9c0-0.5,0.4-1,1-1l0,0c0.5,0,1,0.4,1,1L1817.4,798.4
			C1817.5,798.4,1817.4,798.4,1817.4,798.4z"/>
		<path class="st1" d="M1834.8,798.4h-1.8c-0.1,0-0.1-0.1-0.1-0.1v-13.8c0-0.5,0.4-1,1-1l0,0c0.5,0,1,0.4,1,1V798.4z"/>
		<circle class="st1" cx="1792.9" cy="820" r="6.7"/>
		<path class="st1" d="M1803.3,851.7h-19.8c-0.5,0-0.8-0.4-0.8-1v-19c0-3.1,2.2-5.4,4.8-5l0,0l3.5,1.1c1,0.3,2.1,0.4,3.2,0.1
			l3.9-0.9c1.7-0.4,3.5,0.2,4.6,1.7c0.7,1,1.2,2.3,1.2,3.7v18.8C1803.7,851.5,1803.6,851.7,1803.3,851.7z"/>
		<path class="st1" d="M1787.6,851.7h-1.4v-10.5c0-0.4,0.3-0.7,0.7-0.7l0,0c0.4,0,0.7,0.3,0.7,0.7L1787.6,851.7
			C1787.7,851.7,1787.6,851.7,1787.6,851.7z"/>
		<path class="st1" d="M1800.8,851.7h-1.4c0,0-0.1,0-0.1-0.1v-10.5c0-0.4,0.3-0.7,0.7-0.7l0,0c0.4,0,0.7,0.3,0.7,0.7V851.7z"/>
		<circle class="st1" cx="1825.8" cy="820" r="6.7"/>
		<path class="st1" d="M1836.2,851.7h-19.8c-0.5,0-0.8-0.4-0.8-1v-19c0-3.1,2.2-5.4,4.8-5l0,0l3.5,1.1c1,0.3,2.1,0.4,3.2,0.1
			l3.9-0.9c1.7-0.4,3.5,0.2,4.6,1.7c0.7,1,1.2,2.3,1.2,3.7v18.8C1836.6,851.5,1836.4,851.7,1836.2,851.7z"/>
		<path class="st1" d="M1820.5,851.7h-1.4v-10.5c0-0.4,0.3-0.7,0.7-0.7l0,0c0.4,0,0.7,0.3,0.7,0.7L1820.5,851.7
			C1820.5,851.7,1820.5,851.7,1820.5,851.7z"/>
		<path class="st1" d="M1833.7,851.7h-1.4c0,0-0.1,0-0.1-0.1v-10.5c0-0.4,0.3-0.7,0.7-0.7l0,0c0.4,0,0.7,0.3,0.7,0.7V851.7z"/>
		<circle class="st1" cx="1858.7" cy="820.3" r="6.7"/>
		<path class="st1" d="M1868.8,852H1849c-0.5,0-0.8-0.4-0.8-1v-19c0-3.1,2.2-5.4,4.8-5l0,0l3.5,1.1c1,0.3,2.1,0.4,3.2,0.1l3.9-0.9
			c1.7-0.4,3.5,0.2,4.6,1.7c0.7,1,1.2,2.3,1.2,3.7v18.8C1869.2,851.8,1869,852,1868.8,852z"/>
		<path class="st1" d="M1853.3,852h-1.4v-10.5c0-0.4,0.3-0.7,0.7-0.7l0,0c0.4,0,0.7,0.3,0.7,0.7L1853.3,852
			C1853.4,852,1853.4,852,1853.3,852z"/>
		<path class="st1" d="M1866.5,852h-1.4c0,0-0.1,0-0.1-0.1v-10.5c0-0.4,0.3-0.7,0.7-0.7l0,0c0.4,0,0.7,0.3,0.7,0.7V852z"/>
		<line class="st2" x1="1788.6" y1="803.5" x2="1856.4" y2="803.5"/>
		<line class="st2" x1="1789" y1="802.4" x2="1789" y2="807.9"/>
		<line class="st2" x1="1824.8" y1="803.5" x2="1824.8" y2="807.9"/>
		<line class="st2" x1="1855.5" y1="802.5" x2="1855.5" y2="808.3"/>
	</g>
	<circle class="st3" cx="1822.7" cy="801.2" r="80.5"/>
</g>
<g>
	<g>
		<circle class="st4" cx="1702" cy="898.4" r="5"/>
		<path class="st4" d="M1709.7,921.8h-14.6c-0.3,0-0.6-0.3-0.6-0.7v-14c0-2.3,1.6-4,3.5-3.7l0,0l2.6,0.8c0.8,0.2,1.6,0.3,2.4,0.1
			l2.8-0.7c1.2-0.3,2.6,0.1,3.4,1.3c0.5,0.7,0.8,1.7,0.8,2.7v13.8C1710,921.6,1709.8,921.8,1709.7,921.8z"/>
		<path class="st4" d="M1698.1,921.8h-1v-7.9c0-0.2,0.2-0.4,0.4-0.4h0.3c0.2,0,0.4,0.2,0.4,0.4L1698.1,921.8
			C1698.1,921.8,1698.1,921.8,1698.1,921.8z"/>
		<path class="st4" d="M1707.8,921.8h-1c0,0,0,0,0,0v-7.8c0-0.2,0.2-0.4,0.4-0.4h0.3c0.2,0,0.4,0.2,0.4,0.4V921.8z"/>
		<circle class="st4" cx="1684.5" cy="933.8" r="3.8"/>
		<path class="st4" d="M1690.3,951.5h-11c-0.3,0-0.5-0.2-0.5-0.5v-10.6c0-1.8,1.2-3,2.7-2.8l0,0l1.9,0.6c0.6,0.2,1.2,0.2,1.8,0.1
			l2.2-0.5c0.9-0.2,1.9,0.1,2.6,1c0.4,0.6,0.6,1.3,0.6,2.1v10.5C1690.5,951.4,1690.4,951.5,1690.3,951.5z"/>
		<path class="st4" d="M1681.5,951.5h-0.8v-6c0-0.2,0.1-0.3,0.3-0.3h0.2c0.2,0,0.3,0.1,0.3,0.3L1681.5,951.5
			C1681.5,951.5,1681.5,951.5,1681.5,951.5z"/>
		<path class="st4" d="M1688.8,951.5h-0.8c0,0,0,0,0,0v-5.9c0-0.2,0.1-0.3,0.3-0.3h0.2c0.2,0,0.3,0.1,0.3,0.3V951.5z"/>
		<circle class="st4" cx="1702.8" cy="933.8" r="3.8"/>
		<path class="st4" d="M1708.6,951.5h-11c-0.3,0-0.5-0.2-0.5-0.5v-10.6c0-1.8,1.2-3,2.7-2.8l0,0l1.9,0.6c0.6,0.2,1.2,0.2,1.8,0.1
			l2.2-0.5c0.9-0.2,1.9,0.1,2.6,1c0.4,0.6,0.6,1.3,0.6,2.1v10.5C1708.8,951.4,1708.7,951.5,1708.6,951.5z"/>
		<path class="st4" d="M1699.8,951.5h-0.8v-6c0-0.2,0.1-0.3,0.3-0.3h0.2c0.2,0,0.3,0.1,0.3,0.3L1699.8,951.5
			C1699.8,951.5,1699.8,951.5,1699.8,951.5z"/>
		<path class="st4" d="M1707.1,951.5h-0.8c0,0,0,0,0,0v-5.9c0-0.2,0.1-0.3,0.3-0.3h0.2c0.2,0,0.3,0.1,0.3,0.3V951.5z"/>
		<circle class="st4" cx="1721.1" cy="934" r="3.8"/>
		<path class="st4" d="M1726.7,951.6h-11c-0.3,0-0.5-0.2-0.5-0.5v-10.6c0-1.8,1.2-3,2.7-2.8l0,0l1.9,0.6c0.6,0.2,1.2,0.2,1.8,0.1
			l2.2-0.5c0.9-0.2,1.9,0.1,2.6,1c0.4,0.6,0.6,1.3,0.6,2.1v10.5C1727,951.5,1726.9,951.6,1726.7,951.6z"/>
		<path class="st4" d="M1718.1,951.6h-0.8v-6c0-0.2,0.1-0.3,0.3-0.3h0.2c0.2,0,0.3,0.1,0.3,0.3L1718.1,951.6
			C1718.1,951.6,1718.1,951.6,1718.1,951.6z"/>
		<path class="st4" d="M1725.4,951.6h-0.8c0,0,0,0,0,0v-5.9c0-0.2,0.1-0.3,0.3-0.3h0.2c0.2,0,0.3,0.1,0.3,0.3V951.6z"/>
		<line class="st5" x1="1682.1" y1="924.6" x2="1719.8" y2="924.6"/>
		<line class="st5" x1="1682.3" y1="924" x2="1682.3" y2="927.1"/>
		<line class="st5" x1="1702.2" y1="924.6" x2="1702.2" y2="927.1"/>
		<line class="st5" x1="1719.3" y1="924.1" x2="1719.3" y2="927.3"/>
	</g>
	<circle class="st6" cx="1701" cy="923.3" r="44.8"/>
</g>
<line class="st7" x1="1772.6" y1="863.5" x2="1728.2" y2="888.5"/>
<line class="st7" x1="1658.1" y1="934.6" x2="1602.3" y2="955.1"/>
<g>
	<g>
		<circle class="st4" cx="1836.1" cy="927.7" r="5"/>
		<path class="st4" d="M1843.8,951h-14.6c-0.3,0-0.6-0.3-0.6-0.7v-14c0-2.3,1.6-4,3.5-3.7l0,0l2.6,0.8c0.8,0.2,1.6,0.3,2.4,0.1
			l2.8-0.7c1.2-0.3,2.6,0.1,3.4,1.3c0.5,0.7,0.8,1.7,0.8,2.7v13.8C1844.1,950.9,1843.9,951,1843.8,951z"/>
		<path class="st4" d="M1832.2,951h-1v-7.9c0-0.2,0.2-0.4,0.4-0.4h0.3c0.2,0,0.4,0.2,0.4,0.4L1832.2,951
			C1832.2,951,1832.2,951,1832.2,951z"/>
		<path class="st4" d="M1841.9,951h-1c0,0,0,0,0,0v-7.8c0-0.2,0.2-0.4,0.4-0.4h0.3c0.2,0,0.4,0.2,0.4,0.4V951z"/>
		<circle class="st4" cx="1818.6" cy="963.1" r="3.8"/>
		<path class="st4" d="M1824.4,980.7h-11c-0.3,0-0.5-0.2-0.5-0.5v-10.6c0-1.8,1.2-3,2.7-2.8l0,0l1.9,0.6c0.6,0.2,1.2,0.2,1.8,0.1
			l2.2-0.5c0.9-0.2,1.9,0.1,2.6,1c0.4,0.6,0.6,1.3,0.6,2.1v10.5C1824.6,980.6,1824.5,980.7,1824.4,980.7z"/>
		<path class="st4" d="M1815.6,980.7h-0.8v-6c0-0.2,0.1-0.3,0.3-0.3h0.2c0.2,0,0.3,0.1,0.3,0.3L1815.6,980.7
			C1815.6,980.7,1815.6,980.7,1815.6,980.7z"/>
		<path class="st4" d="M1822.9,980.7h-0.8c0,0,0,0,0,0v-5.9c0-0.2,0.1-0.3,0.3-0.3h0.2c0.2,0,0.3,0.1,0.3,0.3V980.7z"/>
		<circle class="st4" cx="1836.9" cy="963.1" r="3.8"/>
		<path class="st4" d="M1842.7,980.7h-11c-0.3,0-0.5-0.2-0.5-0.5v-10.6c0-1.8,1.2-3,2.7-2.8l0,0l1.9,0.6c0.6,0.2,1.2,0.2,1.8,0.1
			l2.2-0.5c0.9-0.2,1.9,0.1,2.6,1c0.4,0.6,0.6,1.3,0.6,2.1v10.5C1842.9,980.6,1842.8,980.7,1842.7,980.7z"/>
		<path class="st4" d="M1833.9,980.7h-0.8v-6c0-0.2,0.1-0.3,0.3-0.3h0.2c0.2,0,0.3,0.1,0.3,0.3L1833.9,980.7
			C1834,980.7,1833.9,980.7,1833.9,980.7z"/>
		<path class="st4" d="M1841.3,980.7h-0.8c0,0,0,0,0,0v-5.9c0-0.2,0.1-0.3,0.3-0.3h0.2c0.2,0,0.3,0.1,0.3,0.3V980.7z"/>
		<circle class="st4" cx="1855.2" cy="963.2" r="3.8"/>
		<path class="st4" d="M1860.8,980.9h-11c-0.3,0-0.5-0.2-0.5-0.5v-10.6c0-1.8,1.2-3,2.7-2.8l0,0l1.9,0.6c0.6,0.2,1.2,0.2,1.8,0.1
			l2.2-0.5c0.9-0.2,1.9,0.1,2.6,1c0.4,0.6,0.6,1.3,0.6,2.1v10.5C1861.1,980.8,1861,980.9,1860.8,980.9z"/>
		<path class="st4" d="M1852.2,980.9h-0.8v-6c0-0.2,0.1-0.3,0.3-0.3h0.2c0.2,0,0.3,0.1,0.3,0.3L1852.2,980.9
			C1852.2,980.9,1852.2,980.9,1852.2,980.9z"/>
		<path class="st4" d="M1859.6,980.9h-0.8c0,0,0,0,0,0v-5.9c0-0.2,0.1-0.3,0.3-0.3h0.2c0.2,0,0.3,0.1,0.3,0.3V980.9z"/>
		<line class="st5" x1="1816.2" y1="953.9" x2="1853.9" y2="953.9"/>
		<line class="st5" x1="1816.4" y1="953.3" x2="1816.4" y2="956.3"/>
		<line class="st5" x1="1836.3" y1="953.9" x2="1836.3" y2="956.3"/>
		<line class="st5" x1="1853.4" y1="953.3" x2="1853.4" y2="956.6"/>
	</g>
	<circle class="st6" cx="1835.1" cy="952.6" r="44.8"/>
</g>
<g>
	<g>
		<circle class="st4" cx="1568.2" cy="948.8" r="3.9"/>
		<path class="st4" d="M1574.1,966.9h-11.4c-0.3,0-0.5-0.3-0.5-0.6v-10.9c0-1.8,1.2-3.1,2.7-2.9l0,0l2,0.6c0.6,0.2,1.2,0.2,1.8,0.1
			l2.2-0.5c1-0.2,2,0.1,2.6,1c0.4,0.6,0.7,1.3,0.7,2.1v10.8C1574.3,966.8,1574.2,966.9,1574.1,966.9z"/>
		<path class="st4" d="M1565.1,966.9h-0.8v-6.1c0-0.2,0.2-0.4,0.4-0.4h0c0.2,0,0.4,0.2,0.4,0.4L1565.1,966.9
			C1565.1,966.9,1565.1,966.9,1565.1,966.9z"/>
		<path class="st4" d="M1572.6,966.9h-0.8c0,0,0,0,0,0v-6c0-0.2,0.2-0.4,0.4-0.4h0c0.2,0,0.4,0.2,0.4,0.4V966.9z"/>
		<circle class="st4" cx="1554.5" cy="976.3" r="2.9"/>
		<path class="st4" d="M1559,990h-8.6c-0.2,0-0.4-0.2-0.4-0.4v-8.2c0-1.4,0.9-2.3,2.1-2.2l0,0l1.5,0.5c0.5,0.1,0.9,0.2,1.4,0
			l1.7-0.4c0.7-0.2,1.5,0.1,2,0.8c0.3,0.4,0.5,1,0.5,1.6v8.1C1559.2,989.9,1559.1,990,1559,990z"/>
		<path class="st4" d="M1552.2,990h-0.6v-4.6c0-0.2,0.1-0.3,0.3-0.3h0c0.2,0,0.3,0.1,0.3,0.3L1552.2,990
			C1552.2,990,1552.2,990,1552.2,990z"/>
		<path class="st4" d="M1557.9,990h-0.6c0,0,0,0,0,0v-4.5c0-0.2,0.1-0.3,0.3-0.3h0c0.2,0,0.3,0.1,0.3,0.3V990z"/>
		<circle class="st4" cx="1568.8" cy="976.3" r="2.9"/>
		<path class="st4" d="M1573.2,990h-8.6c-0.2,0-0.4-0.2-0.4-0.4v-8.2c0-1.4,0.9-2.3,2.1-2.2l0,0l1.5,0.5c0.5,0.1,0.9,0.2,1.4,0
			l1.7-0.4c0.7-0.2,1.5,0.1,2,0.8c0.3,0.4,0.5,1,0.5,1.6v8.1C1573.4,989.9,1573.4,990,1573.2,990z"/>
		<path class="st4" d="M1566.4,990h-0.6v-4.6c0-0.2,0.1-0.3,0.3-0.3h0c0.2,0,0.3,0.1,0.3,0.3L1566.4,990
			C1566.5,990,1566.5,990,1566.4,990z"/>
		<path class="st4" d="M1572.1,990h-0.6c0,0,0,0,0,0v-4.5c0-0.2,0.1-0.3,0.3-0.3h0c0.2,0,0.3,0.1,0.3,0.3V990z"/>
		<circle class="st4" cx="1583" cy="976.4" r="2.9"/>
		<path class="st4" d="M1587.4,990.1h-8.6c-0.2,0-0.4-0.2-0.4-0.4v-8.2c0-1.4,0.9-2.3,2.1-2.2l0,0l1.5,0.5c0.5,0.1,0.9,0.2,1.4,0
			l1.7-0.4c0.7-0.2,1.5,0.1,2,0.8c0.3,0.4,0.5,1,0.5,1.6v8.1C1587.6,990,1587.5,990.1,1587.4,990.1z"/>
		<path class="st4" d="M1580.7,990.1h-0.6v-4.6c0-0.2,0.1-0.3,0.3-0.3h0c0.2,0,0.3,0.1,0.3,0.3L1580.7,990.1
			C1580.7,990.1,1580.7,990.1,1580.7,990.1z"/>
		<path class="st4" d="M1586.4,990.1h-0.6c0,0,0,0,0,0v-4.5c0-0.2,0.1-0.3,0.3-0.3h0c0.2,0,0.3,0.1,0.3,0.3V990.1z"/>
		<line class="st5" x1="1552.6" y1="969.1" x2="1582" y2="969.1"/>
		<line class="st5" x1="1552.8" y1="968.7" x2="1552.8" y2="971.1"/>
		<line class="st5" x1="1568.3" y1="969.1" x2="1568.3" y2="971.1"/>
		<line class="st5" x1="1581.6" y1="968.7" x2="1581.6" y2="971.2"/>
	</g>
	<circle class="st6" cx="1567.4" cy="968.1" r="34.9"/>
</g>
<g>
	<g>
		<circle class="st4" cx="1767.3" cy="1021.7" r="3.9"/>
		<path class="st4" d="M1773.2,1039.9h-11.4c-0.3,0-0.5-0.3-0.5-0.6v-10.9c0-1.8,1.2-3.1,2.7-2.9l0,0l2,0.6c0.6,0.2,1.2,0.2,1.8,0.1
			l2.2-0.5c1-0.2,2,0.1,2.6,1c0.4,0.6,0.7,1.3,0.7,2.1v10.8C1773.5,1039.7,1773.4,1039.9,1773.2,1039.9z"/>
		<path class="st4" d="M1764.2,1039.9h-0.8v-6.1c0-0.2,0.2-0.4,0.4-0.4h0c0.2,0,0.4,0.2,0.4,0.4L1764.2,1039.9
			C1764.3,1039.8,1764.2,1039.9,1764.2,1039.9z"/>
		<path class="st4" d="M1771.8,1039.9h-0.8c0,0,0,0,0,0v-6c0-0.2,0.2-0.4,0.4-0.4h0c0.2,0,0.4,0.2,0.4,0.4V1039.9z"/>
		<circle class="st4" cx="1753.6" cy="1049.2" r="2.9"/>
		<path class="st4" d="M1758.1,1063h-8.6c-0.2,0-0.4-0.2-0.4-0.4v-8.2c0-1.4,0.9-2.3,2.1-2.2l0,0l1.5,0.5c0.5,0.1,0.9,0.2,1.4,0
			l1.7-0.4c0.7-0.2,1.5,0.1,2,0.8c0.3,0.4,0.5,1,0.5,1.6v8.1C1758.3,1062.9,1758.2,1063,1758.1,1063z"/>
		<path class="st4" d="M1751.3,1063h-0.6v-4.6c0-0.2,0.1-0.3,0.3-0.3h0c0.2,0,0.3,0.1,0.3,0.3L1751.3,1063
			C1751.4,1062.9,1751.3,1063,1751.3,1063z"/>
		<path class="st4" d="M1757,1063h-0.6c0,0,0,0,0,0v-4.5c0-0.2,0.1-0.3,0.3-0.3h0c0.2,0,0.3,0.1,0.3,0.3V1063z"/>
		<circle class="st4" cx="1767.9" cy="1049.2" r="2.9"/>
		<path class="st4" d="M1772.4,1063h-8.6c-0.2,0-0.4-0.2-0.4-0.4v-8.2c0-1.4,0.9-2.3,2.1-2.2l0,0l1.5,0.5c0.5,0.1,0.9,0.2,1.4,0
			l1.7-0.4c0.7-0.2,1.5,0.1,2,0.8c0.3,0.4,0.5,1,0.5,1.6v8.1C1772.6,1062.9,1772.5,1063,1772.4,1063z"/>
		<path class="st4" d="M1765.6,1063h-0.6v-4.6c0-0.2,0.1-0.3,0.3-0.3h0c0.2,0,0.3,0.1,0.3,0.3L1765.6,1063
			C1765.6,1062.9,1765.6,1063,1765.6,1063z"/>
		<path class="st4" d="M1771.3,1063h-0.6c0,0,0,0,0,0v-4.5c0-0.2,0.1-0.3,0.3-0.3h0c0.2,0,0.3,0.1,0.3,0.3V1063z"/>
		<circle class="st4" cx="1782.1" cy="1049.3" r="2.9"/>
		<path class="st4" d="M1786.5,1063.1h-8.6c-0.2,0-0.4-0.2-0.4-0.4v-8.2c0-1.4,0.9-2.3,2.1-2.2l0,0l1.5,0.5c0.5,0.1,0.9,0.2,1.4,0
			l1.7-0.4c0.7-0.2,1.5,0.1,2,0.8c0.3,0.4,0.5,1,0.5,1.6v8.1C1786.7,1063,1786.6,1063.1,1786.5,1063.1z"/>
		<path class="st4" d="M1779.8,1063.1h-0.6v-4.6c0-0.2,0.1-0.3,0.3-0.3h0c0.2,0,0.3,0.1,0.3,0.3L1779.8,1063.1
			C1779.8,1063.1,1779.8,1063.1,1779.8,1063.1z"/>
		<path class="st4" d="M1785.5,1063.1h-0.6c0,0,0,0,0,0v-4.5c0-0.2,0.1-0.3,0.3-0.3h0c0.2,0,0.3,0.1,0.3,0.3V1063.1z"/>
		<line class="st5" x1="1751.8" y1="1042.1" x2="1781.1" y2="1042.1"/>
		<line class="st5" x1="1752" y1="1041.6" x2="1752" y2="1044"/>
		<line class="st5" x1="1767.4" y1="1042.1" x2="1767.4" y2="1044"/>
		<line class="st5" x1="1780.7" y1="1041.6" x2="1780.7" y2="1044.2"/>
	</g>
	<circle class="st6" cx="1766.5" cy="1041.1" r="34.9"/>
</g>
<g>
	<g>
		<circle class="st4" cx="1649.4" cy="1021.7" r="3.9"/>
		<path class="st4" d="M1655.3,1039.9H1644c-0.3,0-0.5-0.3-0.5-0.6v-10.9c0-1.8,1.2-3.1,2.7-2.9l0,0l2,0.6c0.6,0.2,1.2,0.2,1.8,0.1
			l2.2-0.5c1-0.2,2,0.1,2.6,1c0.4,0.6,0.7,1.3,0.7,2.1v10.8C1655.6,1039.7,1655.4,1039.9,1655.3,1039.9z"/>
		<path class="st4" d="M1646.3,1039.9h-0.8v-6.1c0-0.2,0.2-0.4,0.4-0.4h0c0.2,0,0.4,0.2,0.4,0.4L1646.3,1039.9
			C1646.3,1039.8,1646.3,1039.9,1646.3,1039.9z"/>
		<path class="st4" d="M1653.9,1039.9h-0.8c0,0,0,0,0,0v-6c0-0.2,0.2-0.4,0.4-0.4h0c0.2,0,0.4,0.2,0.4,0.4V1039.9z"/>
		<circle class="st4" cx="1635.7" cy="1049.2" r="2.9"/>
		<path class="st4" d="M1640.2,1063h-8.6c-0.2,0-0.4-0.2-0.4-0.4v-8.2c0-1.4,0.9-2.3,2.1-2.2l0,0l1.5,0.5c0.5,0.1,0.9,0.2,1.4,0
			l1.7-0.4c0.7-0.2,1.5,0.1,2,0.8c0.3,0.4,0.5,1,0.5,1.6v8.1C1640.4,1062.9,1640.3,1063,1640.2,1063z"/>
		<path class="st4" d="M1633.4,1063h-0.6v-4.6c0-0.2,0.1-0.3,0.3-0.3h0c0.2,0,0.3,0.1,0.3,0.3L1633.4,1063
			C1633.4,1062.9,1633.4,1063,1633.4,1063z"/>
		<path class="st4" d="M1639.1,1063h-0.6c0,0,0,0,0,0v-4.5c0-0.2,0.1-0.3,0.3-0.3h0c0.2,0,0.3,0.1,0.3,0.3V1063z"/>
		<circle class="st4" cx="1650" cy="1049.2" r="2.9"/>
		<path class="st4" d="M1654.5,1063h-8.6c-0.2,0-0.4-0.2-0.4-0.4v-8.2c0-1.4,0.9-2.3,2.1-2.2l0,0l1.5,0.5c0.5,0.1,0.9,0.2,1.4,0
			l1.7-0.4c0.7-0.2,1.5,0.1,2,0.8c0.3,0.4,0.5,1,0.5,1.6v8.1C1654.7,1062.9,1654.6,1063,1654.5,1063z"/>
		<path class="st4" d="M1647.6,1063h-0.6v-4.6c0-0.2,0.1-0.3,0.3-0.3h0c0.2,0,0.3,0.1,0.3,0.3L1647.6,1063
			C1647.7,1062.9,1647.7,1063,1647.6,1063z"/>
		<path class="st4" d="M1653.4,1063h-0.6c0,0,0,0,0,0v-4.5c0-0.2,0.1-0.3,0.3-0.3h0c0.2,0,0.3,0.1,0.3,0.3V1063z"/>
		<circle class="st4" cx="1664.2" cy="1049.3" r="2.9"/>
		<path class="st4" d="M1668.6,1063.1h-8.6c-0.2,0-0.4-0.2-0.4-0.4v-8.2c0-1.4,0.9-2.3,2.1-2.2l0,0l1.5,0.5c0.5,0.1,0.9,0.2,1.4,0
			l1.7-0.4c0.7-0.2,1.5,0.1,2,0.8c0.3,0.4,0.5,1,0.5,1.6v8.1C1668.8,1063,1668.7,1063.1,1668.6,1063.1z"/>
		<path class="st4" d="M1661.9,1063.1h-0.6v-4.6c0-0.2,0.1-0.3,0.3-0.3h0c0.2,0,0.3,0.1,0.3,0.3L1661.9,1063.1
			C1661.9,1063.1,1661.9,1063.1,1661.9,1063.1z"/>
		<path class="st4" d="M1667.6,1063.1h-0.6c0,0,0,0,0,0v-4.5c0-0.2,0.1-0.3,0.3-0.3h0c0.2,0,0.3,0.1,0.3,0.3V1063.1z"/>
		<line class="st5" x1="1633.8" y1="1042.1" x2="1663.2" y2="1042.1"/>
		<line class="st5" x1="1634" y1="1041.6" x2="1634" y2="1044"/>
		<line class="st5" x1="1649.5" y1="1042.1" x2="1649.5" y2="1044"/>
		<line class="st5" x1="1662.8" y1="1041.6" x2="1662.8" y2="1044.2"/>
	</g>
	<circle class="st6" cx="1648.6" cy="1041.1" r="34.9"/>
</g>
<line class="st7" x1="1812.5" y1="991.3" x2="1788.6" y2="1014.1"/>
<line class="st7" x1="1618.6" y1="1021.1" x2="1585.8" y2="999.2"/>
<line class="st7" x1="1658.1" y1="934.6" x2="1600.1" y2="955.9"/>
<line class="st7" x1="1690.4" y1="967" x2="1662.6" y2="1007.7"/>
<line class="st7" x1="1722.7" y1="963.7" x2="1749.2" y2="1010.1"/>
<line class="st7" x1="1745.9" y1="934" x2="1791.4" y2="942.8"/>
<line class="st7" x1="1825.8" y1="881.3" x2="1835.1" y2="907.8"/>
<line class="st7" x1="1731.7" y1="1046.3" x2="1682.5" y2="1048.6"/>
</svg>
