<?xml version="1.0" encoding="utf-8"?>
<!-- Generator: Adobe Illustrator 20.1.0, SVG Export Plug-In . SVG Version: 6.00 Build 0)  -->
<svg version="1.1" id="Layer_1" xmlns="http://www.w3.org/2000/svg" xmlns:xlink="http://www.w3.org/1999/xlink" x="0px" y="0px"
	 viewBox="0 0 1920 1080" style="enable-background:new 0 0 1920 1080;" xml:space="preserve">
<style type="text/css">
	.st0{fill:#57EAB9;}
	.st1{fill:none;stroke:#FCFCFC;stroke-miterlimit:10;}
	.st2{fill:none;stroke:#F7F7F5;stroke-width:4;stroke-miterlimit:10;}
	.st3{fill:#FFFFFF;}
	.st4{fill:none;}
	.st5{fill:none;stroke:#FFFFFF;stroke-width:2;stroke-miterlimit:10;}
	.st6{fill:none;stroke:#F9F9F7;stroke-width:5;stroke-miterlimit:10;}
	.st7{fill:none;stroke:#D8D8D4;stroke-width:3;stroke-miterlimit:10;}
	.st8{fill:none;stroke:#F9F9F7;stroke-width:4;stroke-miterlimit:10;}
	.st9{fill:none;stroke:#E5E5DA;stroke-width:4;stroke-miterlimit:10;}
</style>
<g>
	<path class="st0" d="M871.7,1080c41.8-5,35.8-44.8,93.8-49.4l0,0c51,0.5,220.1-23.3,285.3-39.5l234.2-58c58.7-12.4,146-12,201.8-89
		l19.5-124c1.1-3.2,11.5,0,0,0l31.5-243.1c0.1-0.6,0.1-1.3,0.1-1.9c0-24.4-0.1-0.5,0-1.3c1-15.7,0,1.3,0-1.7c0-29.6,1.1-52-1.7-72.5
		l-14-240.5l6.7,259c0,3-6,3-6,0c0-64.5-42.2-222.6-50-255c-3.3-13.5-3-14-10-32L1612.4,0H1920v1080"/>
</g>
<g>
	<path class="st0" d="M563.4,1068.5"/>
</g>
<g>
	<path class="st1" d="M1397.6,990.7"/>
	<path class="st1" d="M1361.5,965"/>
	<path class="st1" d="M1305,1067.4"/>
	<path class="st1" d="M1361.7,1049.2"/>
	<path class="st1" d="M1572.2,949.1"/>
	<path class="st1" d="M1671.3,1068.7"/>
	<path class="st1" d="M1567.9,949.1"/>
	<path class="st1" d="M1361.7,965.4"/>
	<path class="st1" d="M1404.7,1052.5"/>
	<line class="st1" x1="1357.4" y1="963.4" x2="1357.4" y2="963.4"/>
	<path class="st2" d="M1773.6,959.8c10.6,11.4,2,18.1-9.9,20.6c-12.1,2.5-21,12.2-21.7,21.1c-0.7,9.9,7.4,21.3,8.3,31.6
		c16.4,2.7,25.1,11.8,33.1,19.8c4.8,4.8,10.7,10,20.5,11.9c3.7,0.7,7.8,1,11.7,1.3c12.5,1.1,22.8,2.8,33.3,6.6"/>
	<g>
		<g>
			<path class="st3" d="M1831.7,796c0-11.6-8.3-21.4-11.5-21.4c-3.1,0-11.5,9.8-11.5,21.4s2.3,20.5,11.5,20.5
				C1829.5,816.5,1831.7,807.6,1831.7,796z"/>
		</g>
		<g>
			<path class="st3" d="M1841.4,830.1c7.4-5.8,10.2-12.9,8.9-13.8c-1.3-0.8-11.1,1.8-18.5,7.5c-7.4,5.8-12.2,10.8-8.3,13.3
				C1827.3,839.7,1834,835.8,1841.4,830.1z"/>
		</g>
		<g>
			<line class="st4" x1="1820.3" y1="816.1" x2="1820.3" y2="868.3"/>
		</g>
		<g>
			<path class="st3" d="M1840.9,851.7c8.1-5.3,11.7-12.2,10.5-13.1s-11.3,1.1-19.4,6.4s-13.5,10-9.9,12.8
				C1825.7,860.4,1832.8,857,1840.9,851.7z"/>
		</g>
		<g>
			<path class="st3" d="M1807.9,829.7c-7.8-5.5-17.7-7.8-19-6.9c-1.3,0.9,2,7.9,9.8,13.4c7.8,5.5,14.7,9.1,18.4,6.5
				C1820.8,840.1,1815.7,835.2,1807.9,829.7z"/>
		</g>
		<g>
			<path class="st3" d="M1807.9,851c-7.8-5.5-17.7-7.8-19-6.9c-1.3,0.9,2,7.9,9.8,13.4c7.8,5.5,14.7,9.1,18.4,6.5
				C1820.8,861.5,1815.7,856.6,1807.9,851z"/>
		</g>
	</g>
	<circle class="st5" cx="1816.8" cy="816.5" r="68.9"/>
	<path class="st6" d="M1813.5,883.8c-4.7,13.3,5.9,22.7-0.1,35.4c-8.2,17.3-34,37-48.1,47.8c-11,8.4-23.8,13.2-36.4,17.9
		c-28.2,10.6-61,11-89.2,21.5c-22.8,8.5-53.4,62.4-77,66.7"/>
	<path class="st6" d="M1789.5,879.8c-6.5,5.1-16,14.7-9.4,19.7c6.6,4.9,15.7,7.9,19.5,15.2c3.8,7.4,1,16.7-3.8,23.4
		c-4.9,6.8-11.6,11.9-16.9,18.3"/>
	<path class="st6" d="M1859.6,870.4c-1.1,10.3,2.6,25.1,9.7,32.7c3.2,3.5,7,6.3,10,9.9c7.8,9.5,8.7,22.9,15,33.5
		c5.1,8.5,13.8,14.7,23.4,16.8"/>
	<path class="st7" d="M1393.6,959.1c135.8,74.7-46.4,12.8-65.7,14"/>
	<path class="st7" d="M1589.3,1006.4c-11.3,1.2-26.3,15.9-35.7,22.2c-1.5,1-3.1,2.2-4,3.8c-1,1.7-1.2,3.8-1.8,5.7
		c-1.8,5.8-7.6,9.6-13.4,11.2c-5.9,1.6-12,1.6-18,2.4c-17.1,2.5-32.2,12.2-46.6,21.7"/>
	<path class="st7" d="M1671.4,1006.4c-16.4,5.7-34,15.1-38.6,29.6c-2,6.2-2.9,13.2-8.8,17.2c-2.4,1.6-5.4,2.5-8.3,3.4
		c-11.6,3.3-24.6,7-30,16.3"/>
	<path class="st7" d="M1780,899.5c-6.3,2.1-29,26.2-35.3,28.3c-4.4,1.4-10,2.6-13-0.9c-2.9-3.4-1.4-9.1-4.2-12.5
		c-1.5-1.8-3.9-2.5-6.2-3.1c-19.1-4.5-57.7,3.7-73.8,14.7"/>
	<path class="st7" d="M1726.2,985.9c-8.6,1.3-80-11.5-84.3-19c-1.3-2.3-2.4-5-4.6-6.4c-2.9-1.8-6.6-0.9-9.9-0.4
		c-12.9,1.9-31.1-9.3-38-20.4"/>
	<path class="st7" d="M1746.1,1033.9c6.9-1.9-7.6,3.7-11.3,9.4c-1.4,2.2,0.2,5.1,0.1,7.7c-0.5,8-7.8,14-15.3,16.7
		c-7.5,2.7-16,2.5-23.4,5.4"/>
	<path class="st7" d="M1701.3,994c-2.6,6-0.7,15.2,4.3,20c0.9,0.9,6.9,6.2,7.1,7.3c0.3,1.9-1.8,3.4-3.8,4.4
		c-11.1,6-22.8,12.1-35.8,12.8c-5,0.2-10.7-0.1-14,3.2c-2.8,2.7-2.4,6.8-3.4,10.3c-2.4,8.3-12.3,13.1-21.6,16.1
		c-9.3,2.9-12.8-1.5-19.2,5"/>
	<path class="st8" d="M1834.4,883.7c7.7,21.4-2.6,1.7,7.4,21.9c4.1,8.4,11.8,10.7,15.8,16c8.9,11.9-6,19.7,2.9,31.5
		c7.2,9.6,38.2,23.3,41.2,32.6c2.8,8.6,2,16.8,1.2,24.9c-1.3,12.8-30.1,21.5-3.8,38.3c7.9,5.1-0.9,9.4-3.7,13.7
		c-2.7,4.2,18.3,6.2,14.3,10.1"/>
	<path class="st7" d="M1861.3,932.1c13.3,16.6,34.4,41.8,55.6,41"/>
	<path class="st7" d="M1857,949.1c-3.2,6.3-10.3,20.6-10.3,32c0,2.5,0.2,5.1,1.5,7.2c1.8,3,5.3,4.4,8.2,6.3
		c8.7,5.8,12.3,16.6,15.3,26.6c0.4,1.4,0.9,2.9,0.6,4.3c-0.8,4.1-6.2,4.9-10.3,4.9c-6.7,0-13.6,0.1-19.8,2.6s-11.8,7.6-12.8,14.3
		c-0.3,2.2-0.2,4.6-1.2,6.5c-2.7,5.3-11.2,4.3-15.1,8.7"/>
	<path class="st8" d="M1767.6,864.8c-2.2,14.5-25,29-27.2,43.5c-0.6,3.8-1.2,7.8-3.7,10.7c-2.5,2.9-6.4,4.1-10.1,5.1
		c-15,4.2-29.6,15.1-45.6,9.5c-26-9-56.4-5.3-80.9,7c-8,4-15,10-23,13.9c-19.3,9.3-41.7,3.9-62.8,0.8c-19.7-2.9-38.9,14.1-62.3-14.4
		"/>
	<path class="st9" d="M1704.5,994.2c-23,2.9-46.4-0.2-69.3,3c-11.4,1.6-22.5,4.7-33.7,7.1c-74.1,15.7-93.9,21.1-163.2-9.4"/>
	<path class="st9" d="M1703.5,988.9"/>
	<path class="st7" d="M1806,941c11.8,20.7,4.5,46.7,7.6,70.3c0.5,4,1.4,8.2,3.8,11.5c2.1,3,5.2,5.2,8.2,7.4
		c15.8,11.6,30.3,25,43,39.9"/>
	<path class="st7" d="M1693.2,937.7c-8.5,3.4-15.3,10.8-17.9,19.5c-1.3,4.4-1.8,9.4-5.2,12.5c-2.4,2.2-5.8,2.9-9,3.3
		c-19.5,2.6-40.7-1.8-57.9,7.8c-11.2,6.2-19.3,17.9-31.7,21.1c-5.3,1.4-11.1,1.1-16.3,2.8c-13.4,4.4-19.4,20.5-31.8,27.2
		c-16,8.8-37.1-0.4-53.5,7.7c-7.4,3.6-12.6,10.3-18.6,15.9c-12.8,12-29.8,19.6-47.3,21.2"/>
</g>
</svg>
