<?xml version="1.0" encoding="utf-8"?>
<!-- Generator: Adobe Illustrator 20.1.0, SVG Export Plug-In . SVG Version: 6.00 Build 0)  -->
<svg version="1.1" id="Layer_1" xmlns="http://www.w3.org/2000/svg" xmlns:xlink="http://www.w3.org/1999/xlink" x="0px" y="0px"
	 viewBox="0 0 1920 1080" style="enable-background:new 0 0 1920 1080;" xml:space="preserve">
<style type="text/css">
	.st0{fill:#EAE35E;}
	.st1{fill:#F7F9F8;}
	.st2{font-family:'MyriadPro-Regular';}
	.st3{font-size:150px;}
	.st4{fill:none;stroke:#FFFFFF;stroke-width:2;stroke-miterlimit:10;}
</style>
<path class="st0" d="M305,1080H5.1c-2.8,0-5.1-2.2-5.1-4.9V3.9C0,1.2,2.3-1,5.1-1h429.6c4.7,0,6.9,5.6,3.4,8.6L328.7,98.9
	c-37.9,31.6-66.5,72.1-83.1,117.4l-4.9,13.4c-8.6,23.5-14.8,47.6-18.8,72.2l-7.5,46.9c-0.6,3.5-1.5,10.8-1.5,14.3c0,0.2,0,0.4,0,0.5
	l0,0c-0.7,5.8-9.5,5.8-10.2,0C186.2,225.1,164.2-46.7,209,526l-42-396l37.5,340.7c0.1,1.1-0.2,2.2-0.8,3.1
	c-4.6,7.2-4.3,57.9-3.6,62.9c5.8,40.9-0.3,82.3,5.1,123.8l2.9,22.4c0,0.2,0,0.4,0,0.6c-0.1,13.9,0.7,27.8,2.2,41.5
	c3.5,31.6,13.8,62.1,29.9,89.9c0.1,0.1,0.1,0.2,0.2,0.3l19.8,42.5c0.1,0.1,0.1,0.3,0.2,0.4c10.4,17.8,37.9,49.9,65.3,79.1
	c33.8,36.1,82.4,50.6,132.4,58.3c0.2,0,0.5,0.1,0.7,0.1l96,25.3c25.8,0.6,235.7,32.9,235.7,57.4L1971,1080c0,2.7-40,0,0,0l-1487.9-2
	c0,0-0.1,0-0.1,0C2016.2,1080,305.3,1080,305,1080z"/>
<text transform="matrix(1 0 0 1 78.7631 961.0127)" class="st1 st2 st3">$</text>
<circle class="st4" cx="117.2" cy="917" r="80.5"/>
</svg>
