<?xml version="1.0" encoding="utf-8"?>
<!-- Generator: Adobe Illustrator 21.1.0, SVG Export Plug-In . SVG Version: 6.00 Build 0)  -->
<svg version="1.1" id="Layer_1" xmlns="http://www.w3.org/2000/svg" xmlns:xlink="http://www.w3.org/1999/xlink" x="0px" y="0px"
	 viewBox="0 0 1920 1080" style="enable-background:new 0 0 1920 1080;" xml:space="preserve">
<style type="text/css">
	.st0{fill:#EDED51;}
	.st1{fill:#EA6E6E;}
	.st2{fill:#57EAB9;}
	.st3{fill:#57DADD;}
	.st4{fill:#FFFFFF;}
	.st5{fill:none;}
	.st6{fill:none;stroke:#FFFFFF;stroke-width:2;stroke-miterlimit:10;}
	.st7{fill:#F7F9F8;}
	.st8{font-family:'MyriadPro-Regular';}
	.st9{font-size:285.0932px;}
	.st10{fill:#F9F9F9;}
	.st11{fill:none;stroke:#FFFFFF;stroke-width:3;stroke-miterlimit:10;}
</style>
<rect x="0.5" y="0.5" class="st0" width="960" height="539"/>
<rect x="0.5" y="540.5" class="st1" width="960" height="539"/>
<rect x="960.5" y="0.5" class="st2" width="960" height="539"/>
<rect x="960.5" y="540.5" class="st3" width="960" height="539"/>
<g>
	<g>
		<g>
			<path class="st4" d="M1488.4,200.1c0-29-20.9-53.6-28.7-53.6s-28.7,24.6-28.7,53.6s5.7,51.4,28.7,51.4S1488.4,229.1,1488.4,200.1
				z"/>
		</g>
		<g>
			<path class="st4" d="M1509.1,288.8c22.1-7.9,34.4-22.7,31.9-25.7s-27.8-4.5-49.9,3.3s-37.5,16.1-30.3,25.1
				S1487,296.7,1509.1,288.8z"/>
		</g>
		<g>
			<line class="st5" x1="1459.6" y1="250.5" x2="1459.6" y2="381.2"/>
		</g>
		<g>
			<path class="st4" d="M1511.4,339.7c20.3-13.2,29.4-30.6,26.4-32.9s-28.2,2.7-48.5,15.9c-20.3,13.2-33.7,25.1-24.9,32
				C1473.3,361.5,1491.2,353,1511.4,339.7z"/>
		</g>
		<g>
			<path class="st4" d="M1428.7,284.5c-19.5-13.8-44.4-19.5-47.5-17.3s5,19.9,24.5,33.7c19.5,13.8,36.8,22.9,46.1,16.3
				C1461,310.6,1448.2,298.3,1428.7,284.5z"/>
		</g>
		<g>
			<path class="st4" d="M1428.7,338.1c-19.5-13.8-44.4-19.5-47.5-17.3s5,19.9,24.5,33.7c19.5,13.8,36.8,22.9,46.1,16.3
				C1461,364.2,1448.2,351.9,1428.7,338.1z"/>
		</g>
	</g>
	<circle class="st6" cx="1459.5" cy="252.5" r="172.5"/>
</g>
<g>
	<text transform="matrix(1 0 0 1 377.5283 336.6756)" class="st7 st8 st9">$</text>
</g>
<circle class="st6" cx="453" cy="253" r="169"/>
<g>
	<path class="st10" d="M453,736.9c0-3.4,0.7-5.7,4.1-7.8c5.7-3.4,7.5-10.3,5.3-16.3"/>
	<path class="st10" d="M416.1,768.5c-9.4,4.9-19.3,7.8-31.4,4.8c2.5-2.7,4.3-4.7,5.2-5.7c-8.7,0.1-18.1,0.4-27.6,0.3
		c-1.7,0-3.4-1.4-5.1-2.1c1.1-1.6,2.1-3.3,3.4-4.8c0.9-1,2.2-1.6,4.4-3.1c-10.2,0.5-19.3,2.2-28.6-2.7c2.4-2,4.3-3.6,6.8-5.7
		c-9.8,0.9-18.8,1.4-27.4-4.3c1.9-0.8,2.9-1.5,4.1-1.7c23.9-3.6,44.3-15.1,64.9-26c4.2-2.2,8.1-4.8,12.5-6.7
		c12.5-5.3,26.2,0.2,31.1,12.4c1.7,4.2,1.8,9.6,4.6,12.7c8.1,8.7,4.4,18.8,5.3,28.3c0.1,1.1-0.2,3.2-0.8,3.3
		c-6.4,1.7-12.9,3.2-19.4,4.5C417.9,772.1,417,770.1,416.1,768.5z"/>
	<path class="st10" d="M589.8,745.1c-9.1,5.5-17.7,5.5-27.7,4.2c2.4,2.1,4.1,3.6,6.4,5.6c-9,5.4-18.2,3.5-28.8,2.7
		c2.8,1.9,4.7,2.8,6.1,4.2c1.1,1,2.4,2.7,2.1,3.7c-0.2,1-2.4,2.4-3.6,2.3c-8.9-0.2-17.8-0.6-26.7-1c-0.9,0-1.7-0.4-3.6-0.8
		c2.4,2.6,4.1,4.5,6.5,7.2c-11.9,3.4-21.7,0.3-29.9-3.9c-2.7,1.4-4.3,2.6-6.2,3c-1.7,0.4-3.7,0-5.5-0.3c-11.3-2-12.1-3-12-13.8
		c0-2.5,0.1-4.9,0-7.4c-0.1-4.5-0.2-8.6,3.9-12.3c2.3-2.1,2.8-6.3,3.8-9.6c5.3-18.6,20.9-24.7,38.6-15.5
		c16.7,8.6,33.6,16.9,50.8,24.7c6.3,2.9,13.7,3.6,20.6,5.4C585.9,743.6,587.2,744.1,589.8,745.1z"/>
	<path class="st10" d="M470.5,904.7c10.1,8.6,10.1,8.6-1.6,17c2.7,3.6,7.9,7.5,7.4,10.6c-0.6,3.5-6.2,6.2-9.7,9.3
		c0.5,1.6,1.2,3.7,1.8,5.8c-0.7,0.3-1.5,0.6-2.2,0.9c-0.8-1.9-2.3-3.7-2.4-5.6c0-2.4,0.6-5.1,2-7c1.3-1.8,4-2.8,5.9-4
		c-1.7-4-8.8-2.5-7.7-8.2c0.6-3.4,1.6-6.7,2.5-10.9c-5.2-4.1-4.1-12.7,3.5-16.5c2.7-1.4,5.3-3,9.4-5.3c-4.4-2.5-7.8-4.2-11-6.3
		c-1.6-1-3.9-2.9-3.8-4.1c0.4-3.7-2.3-8.3,2.8-10.8c2.8-1.4,5.6-3,8.8-4.7c-1.2-0.9-1.7-1.4-2.3-1.7c-3-1.6-7.8-2.7-8.5-4.9
		c-1.3-4.5-0.6-9.7-0.3-14.6c0.1-1.1,1.9-2.3,3.2-3.1c4.9-3,9.8-5.9,16.3-9.7c-6-2.7-10.4-5-15-6.6c-2.6-0.9-5.2-1.2-4.4-4.6
		c0.8-3.6-2.5-8.5,4.3-10.3c6.5-1.7,13-3.9,18.9-7c2.9-1.5,5.4-5.3,6.1-8.4c1.1-4.6-3.7-7.7-8.6-6.3c-4.2,1.3-8.2,3.1-12.5,4.1
		c-2,0.4-4.4-0.7-6.6-1.1c0.6-1.9,0.9-4,1.9-5.6c2.9-4.7,7.4-7.3,13.2-7.2c3.6,0.1,7.3,0.5,10.8,1.2c6.3,1.2,11.6,3.6,12.8,10.5
		c1.3,7.4-0.1,14.3-6.9,18.7c-4.5,2.9-9.7,4.7-14.7,6.9c-1.8,0.8-3.7,1.3-6.3,2.1c3.2,1.7,5.8,2.9,8.3,4.4
		c9.3,5.7,9.8,14.9,0.9,20.9c-4,2.7-8.3,5-13,7.7c3.4,1.8,6.6,3.1,9.4,5c7.3,5.1,8.4,11,0.5,15.7c-3.9,2.3-8,4.2-12.3,6.4
		c3.5,2.1,6.9,3.7,9.9,5.9c7.7,5.5,7.3,11.8-0.8,16.4C477.5,901.3,474.2,902.8,470.5,904.7z"/>
	<path class="st10" d="M436.4,931.6c5,2.7,10,5.7,8.3,12.3c-0.4,1.6-1.9,2.9-2.8,4.4c-0.7-0.3-1.3-0.5-2-0.8
		c0.6-2.2,1.2-4.4,1.9-6.9c-1.8-1-4.2-2.3-6.5-3.7c-5.3-3.1-5.6-6.9-0.6-10.6c1.7-1.3,3.7-2.3,6-3.7c-2.3-1.8-4.5-3.5-6.7-5.1
		c-5.1-3.6-5.2-6.2-0.2-9.8c1.3-0.9,2.5-1.8,4.2-3c-4.2-2.2-8-3.9-11.6-6c-6.4-3.6-7-9.2-1.5-14.2c1.7-1.6,3.8-2.8,5.8-4
		c1.8-1.1,3.8-2.1,6.3-3.4c-4.2-2.1-7.8-3.9-11.4-5.8c-9.2-5.1-8.7-11.6,0.6-17c2.5-1.4,5.1-2.7,8.1-4.2c-4.7-2.8-9.1-5.2-13.2-8
		c-8.1-5.5-8-14.5,0.1-20c2.7-1.8,5.6-3.2,8.8-5c-5.7-2.2-11-3.9-16-6.2c-8.3-3.8-12.2-10.1-11.8-19c0.3-5.8,2.9-10,8.5-11.7
		c4.8-1.5,10-2.2,15-2.5c6.8-0.5,11.5,3.1,14.7,8.5c0.7,1.3,1.5,3.6,0.9,4.2c-1.1,1.1-3.4,1.9-4.9,1.5c-4.1-0.9-8.1-2.2-12-3.7
		c-4.1-1.6-7.7-1.7-10.1,2.2s-1.2,8.1,2.7,10.1c6.4,3.3,13.1,6.5,20.1,8.1c7.1,1.6,5.3,6.2,5.8,10.4c0.6,4.5-2.7,4.3-5.6,5.4
		c-4.1,1.6-8.1,3.7-13.6,6.4c6,3.5,10.6,6.6,15.5,9.1c2.8,1.4,4,3.1,3.9,6.1c-0.2,4,1.3,8.7-0.5,11.9c-1.6,3-6.5,4.3-10.5,6.8
		c2.5,1.4,4.5,2.9,6.8,3.7c3.5,1.3,4.7,3.5,5,7.2c0.4,5.2-0.6,8.6-6.5,10.1c-2.5,0.6-4.6,3-7.8,5.2c3.4,2,5.9,3.6,8.5,5
		c7.5,3.8,8.7,12.5,3.7,16.7c1,4.3,1.9,7.6,2.5,11C445.1,928.9,438.6,927.7,436.4,931.6z"/>
	<path class="st10" d="M451.4,951c-0.2-2.5-0.5-4.9-0.5-7.4c-0.7-43.7-1.4-87.4-2.1-131c-0.4-24.4-0.8-48.8-1.1-73.2
		c0-3.5-0.5-6.1-4.2-8.2c-5.6-3.3-7.4-9.9-5.4-15.8c1.9-5.6,7.5-9.4,13.8-9.5c6.5,0,12.2,3.6,14.2,9c2.2,6,0.3,12.9-5.3,16.3
		c-3.4,2-4,4.4-4.1,7.8c-0.9,66.5-1.8,133-2.8,199.5c-0.1,4.2-0.4,8.4-0.6,12.6C452.6,951,452,951,451.4,951z"/>
	<ellipse class="st6" cx="453" cy="815.5" rx="169" ry="161.5"/>
</g>
<g>
	<g>
		<circle class="st4" cx="1463.8" cy="716.3" r="18.7"/>
		<path class="st4" d="M1492.6,804.4h-55c-1.3,0-2.3-1.2-2.3-2.7v-52.8c0-8.7,6-15,13.3-13.8l0,0l9.7,3c2.9,0.9,6,1,8.9,0.3
			l10.7-2.6c4.7-1.1,9.6,0.6,12.7,4.8c2,2.8,3.2,6.3,3.2,10.2V803C1493.8,803.7,1493.2,804.4,1492.6,804.4z"/>
		<path class="st4" d="M1449,804.4h-3.9v-30.3c0-0.5,0.4-1,1-1h2.1c0.5,0,1,0.4,1,1L1449,804.4
			C1449.1,804.3,1449.1,804.4,1449,804.4z"/>
		<path class="st4" d="M1485.5,804.4h-3.9c-0.1,0-0.1-0.1-0.1-0.1v-30.2c0-0.5,0.4-1,1-1h2.1c0.5,0,1,0.4,1,1L1485.5,804.4
			L1485.5,804.4z"/>
		<circle class="st4" cx="1397.7" cy="849.6" r="14.1"/>
		<path class="st4" d="M1419.5,916.2h-41.6c-1,0-1.7-0.9-1.7-2v-39.9c0-6.6,4.5-11.3,10-10.5l0,0l7.3,2.3c2.2,0.7,4.5,0.8,6.7,0.2
			l8.1-2c3.5-0.9,7.3,0.4,9.6,3.7c1.5,2.1,2.4,4.8,2.4,7.7v39.5C1420.4,915.8,1420,916.2,1419.5,916.2z"/>
		<path class="st4" d="M1386.5,916.2h-3v-22.9c0-0.4,0.3-0.7,0.7-0.7h1.6c0.4,0,0.7,0.3,0.7,0.7L1386.5,916.2
			C1386.6,916.2,1386.6,916.2,1386.5,916.2z"/>
		<path class="st4" d="M1414.1,916.2h-3c0,0-0.1,0-0.1-0.1v-22.8c0-0.4,0.3-0.7,0.7-0.7h1.6c0.4,0,0.7,0.3,0.7,0.7v22.9H1414.1z"/>
		<circle class="st4" cx="1466.7" cy="849.6" r="14.1"/>
		<path class="st4" d="M1488.5,916.2h-41.6c-1,0-1.7-0.9-1.7-2v-39.9c0-6.6,4.5-11.3,10-10.5l0,0l7.3,2.3c2.2,0.7,4.5,0.8,6.7,0.2
			l8.1-2c3.5-0.9,7.3,0.4,9.6,3.7c1.5,2.1,2.4,4.8,2.4,7.7v39.5C1489.4,915.8,1489,916.2,1488.5,916.2z"/>
		<path class="st4" d="M1455.5,916.2h-3v-22.9c0-0.4,0.3-0.7,0.7-0.7h1.6c0.4,0,0.7,0.3,0.7,0.7L1455.5,916.2
			C1455.6,916.2,1455.6,916.2,1455.5,916.2z"/>
		<path class="st4" d="M1483.1,916.2h-3c0,0-0.1,0-0.1-0.1v-22.8c0-0.4,0.3-0.7,0.7-0.7h1.6c0.4,0,0.7,0.3,0.7,0.7v22.9H1483.1z"/>
		<circle class="st4" cx="1535.6" cy="850.2" r="14.1"/>
		<path class="st4" d="M1556.9,916.8h-41.6c-1,0-1.7-0.9-1.7-2v-39.9c0-6.6,4.5-11.3,10-10.5l0,0l7.3,2.3c2.2,0.7,4.5,0.8,6.7,0.2
			l8.1-2c3.5-0.9,7.3,0.4,9.6,3.7c1.5,2.1,2.4,4.8,2.4,7.7v39.5C1557.8,916.3,1557.4,916.8,1556.9,916.8z"/>
		<path class="st4" d="M1524.5,916.8h-3v-22.9c0-0.4,0.3-0.7,0.7-0.7h1.6c0.4,0,0.7,0.3,0.7,0.7L1524.5,916.8
			C1524.5,916.7,1524.5,916.8,1524.5,916.8z"/>
		<path class="st4" d="M1552.1,916.8h-3c0,0-0.1,0-0.1-0.1v-22.8c0-0.4,0.3-0.7,0.7-0.7h1.6c0.4,0,0.7,0.3,0.7,0.7v22.9H1552.1z"/>
		<line class="st11" x1="1388.6" y1="815" x2="1530.9" y2="815"/>
		<line class="st11" x1="1389.5" y1="812.8" x2="1389.5" y2="824.3"/>
		<line class="st11" x1="1464.5" y1="815" x2="1464.5" y2="824.3"/>
		<line class="st11" x1="1528.9" y1="813" x2="1528.9" y2="825.1"/>
	</g>
	<circle id="action" class="st6" cx="1460.1" cy="810.2" r="168.9"/>
</g>
</svg>
