<?xml version="1.0" encoding="utf-8"?>
<!-- Generator: Adobe Illustrator 20.1.0, SVG Export Plug-In . SVG Version: 6.00 Build 0)  -->
<svg version="1.1" id="Layer_1" xmlns="http://www.w3.org/2000/svg" xmlns:xlink="http://www.w3.org/1999/xlink" x="0px" y="0px"
	 viewBox="0 0 1920 1080" style="enable-background:new 0 0 1920 1080;" xml:space="preserve">
<style type="text/css">
	.st0{fill:#EA6E6E;stroke:#EBEBEB;stroke-miterlimit:10;}
	.st1{fill:#F9F9F9;}
	.st2{fill:none;stroke:#FFFFFF;stroke-width:2;stroke-miterlimit:10;}
	.st3{fill:none;stroke:#DEDEDE;stroke-width:3;stroke-miterlimit:10;}
</style>
<path class="st0" d="M282.4,1080H4.7c-2.6,0-4.7-2.2-4.7-4.9V3.9C0,1.2,2.1-1,4.7-1h397.8c4.4,0,6.4,5.6,3.1,8.6L304.4,98.9
	c-35.1,31.6-61.6,72.1-76.9,117.4l-4.5,13.4c-7.9,23.5-13.7,47.6-17.4,72.2l-6.9,46.9c-0.5,3.5-1.4,10.8-1.4,14.3c0,0.2,0,0.4,0,0.5
	l0,0c-0.7,5.8-8.8,5.8-9.4,0C172.4,225.1,152-46.7,193.5,526l-38.9-396l34.8,340.7c0.1,1.1-0.2,2.2-0.7,3.1
	c-4.2,7.2-4,57.9-3.4,62.9c5.3,40.9-0.3,82.3,4.8,123.8l2.7,22.4c0,0.2,0,0.4,0,0.6c-0.1,13.9,0.6,27.8,2.1,41.5
	c3.3,31.6,12.8,62.1,27.7,89.9c0.1,0.1,0.1,0.2,0.2,0.3l18.3,42.5c0.1,0.1,0.1,0.3,0.2,0.4c9.6,17.8,35.1,49.9,60.5,79.1
	c31.3,36.1,76.3,50.6,122.6,58.3c0.2,0,0.4,0.1,0.7,0.1l256.3,22.8c23.8,0.6,145.1,37,145.1,61.6"/>
<path class="st0" d="M447.4,1081.2h-0.1"/>
<path class="st0" d="M1825.1,1079.8"/>
<g>
	<path class="st1" d="M120.2,829.8c0-1.7,0.3-2.9,1.9-3.9c2.7-1.7,3.6-5.1,2.5-8.1"/>
	<path class="st1" d="M102.6,845.6c-4.5,2.4-9.2,3.9-14.9,2.4c1.2-1.4,2-2.3,2.5-2.8c-4.2,0.1-8.6,0.2-13.1,0.1
		c-0.8,0-1.6-0.7-2.4-1.1c0.5-0.8,1-1.7,1.6-2.4c0.4-0.5,1.1-0.8,2.1-1.6c-4.8,0.3-9.2,1.1-13.6-1.4c1.2-1,2-1.8,3.2-2.8
		c-4.7,0.5-8.9,0.7-13.1-2.2c0.9-0.4,1.4-0.8,1.9-0.9c11.4-1.8,21.1-7.5,30.9-13c2-1.1,3.9-2.4,5.9-3.3c6-2.7,12.5,0.1,14.8,6.2
		c0.8,2.1,0.8,4.8,2.2,6.4c3.8,4.3,2.1,9.4,2.5,14.1c0.1,0.6-0.1,1.6-0.4,1.7c-3.1,0.9-6.1,1.6-9.2,2.2
		C103.5,847.4,103.1,846.4,102.6,845.6z"/>
	<path class="st1" d="M185.4,833.9c-4.3,2.7-8.5,2.7-13.2,2.1c1.2,1.1,2,1.8,3.1,2.8c-4.3,2.7-8.7,1.8-13.7,1.3
		c1.3,0.9,2.2,1.4,2.9,2.1c0.5,0.5,1.1,1.3,1,1.9c-0.1,0.5-1.1,1.2-1.7,1.2c-4.2-0.1-8.5-0.3-12.7-0.5c-0.4,0-0.8-0.2-1.7-0.4
		c1.1,1.3,2,2.3,3.1,3.6c-5.7,1.7-10.4,0.2-14.3-2c-1.3,0.7-2.1,1.3-3,1.5c-0.8,0.2-1.7,0-2.6-0.2c-5.4-1-5.7-1.5-5.7-6.9
		c0-1.2,0-2.4,0-3.7c0-2.2-0.1-4.3,1.9-6.1c1.1-1.1,1.3-3.1,1.8-4.8c2.5-9.3,10-12.3,18.4-7.7c7.9,4.3,16,8.4,24.2,12.3
		c3,1.4,6.5,1.8,9.8,2.7C183.6,833.2,184.2,833.5,185.4,833.9z"/>
	<path class="st1" d="M128.6,913.5c4.8,4.3,4.8,4.3-0.8,8.5c1.3,1.8,3.8,3.7,3.5,5.3c-0.3,1.7-3,3.1-4.6,4.6
		c0.2,0.8,0.6,1.8,0.9,2.9c-0.4,0.1-0.7,0.3-1.1,0.4c-0.4-0.9-1.1-1.9-1.1-2.8c0-1.2,0.3-2.5,0.9-3.5c0.6-0.9,1.9-1.4,2.8-2
		c-0.8-2-4.2-1.2-3.7-4.1c0.3-1.7,0.7-3.3,1.2-5.4c-2.5-2-2-6.3,1.6-8.2c1.3-0.7,2.5-1.5,4.5-2.6c-2.1-1.2-3.7-2.1-5.2-3.1
		c-0.7-0.5-1.9-1.4-1.8-2c0.2-1.8-1.1-4.1,1.4-5.4c1.4-0.7,2.7-1.5,4.2-2.3c-0.5-0.4-0.8-0.7-1.1-0.9c-1.4-0.8-3.7-1.3-4-2.5
		c-0.6-2.3-0.3-4.8-0.1-7.3c0-0.5,0.9-1.1,1.5-1.5c2.3-1.5,4.7-2.9,7.7-4.8c-2.9-1.3-4.9-2.5-7.2-3.3c-1.2-0.4-2.5-0.6-2.1-2.3
		c0.4-1.8-1.2-4.2,2.1-5.1c3.1-0.8,6.2-1.9,9-3.5c1.4-0.7,2.6-2.6,2.9-4.2c0.5-2.3-1.8-3.9-4.1-3.1c-2,0.6-3.9,1.6-5.9,2
		c-1,0.2-2.1-0.4-3.2-0.6c0.3-0.9,0.4-2,0.9-2.8c1.4-2.3,3.5-3.7,6.3-3.6c1.7,0,3.5,0.3,5.2,0.6c3,0.6,5.5,1.8,6.1,5.2
		c0.6,3.7,0,7.1-3.3,9.3c-2.1,1.5-4.6,2.4-7,3.4c-0.8,0.4-1.8,0.6-3,1.1c1.5,0.9,2.8,1.5,3.9,2.2c4.4,2.8,4.7,7.4,0.4,10.4
		c-1.9,1.3-4,2.5-6.2,3.8c1.6,0.9,3.1,1.5,4.5,2.5c3.5,2.5,4,5.5,0.2,7.8c-1.8,1.1-3.8,2.1-5.9,3.2c1.7,1,3.3,1.9,4.7,3
		c3.7,2.7,3.5,5.9-0.4,8.2C131.9,911.8,130.3,912.6,128.6,913.5z"/>
	<path class="st1" d="M112.3,926.9c2.4,1.3,4.8,2.8,3.9,6.1c-0.2,0.8-0.9,1.5-1.3,2.2c-0.3-0.1-0.6-0.3-1-0.4
		c0.3-1.1,0.6-2.2,0.9-3.4c-0.9-0.5-2-1.2-3.1-1.8c-2.5-1.5-2.7-3.4-0.3-5.3c0.8-0.6,1.8-1.1,2.8-1.8c-1.1-0.9-2.1-1.7-3.2-2.5
		c-2.4-1.8-2.5-3.1-0.1-4.9c0.6-0.5,1.2-0.9,2-1.5c-2-1.1-3.8-2-5.5-3c-3-1.8-3.3-4.6-0.7-7.1c0.8-0.8,1.8-1.4,2.8-2
		c0.9-0.6,1.8-1,3-1.7c-2-1.1-3.7-1.9-5.4-2.9c-4.4-2.6-4.1-5.8,0.3-8.5c1.2-0.7,2.4-1.3,3.9-2.1c-2.2-1.4-4.3-2.6-6.3-4
		c-3.9-2.7-3.8-7.2,0.1-10c1.3-0.9,2.7-1.6,4.2-2.5c-2.7-1.1-5.2-2-7.6-3.1c-3.9-1.9-5.8-5-5.6-9.5c0.1-2.9,1.4-5,4-5.8
		c2.3-0.7,4.7-1.1,7.2-1.3c3.2-0.2,5.5,1.5,7,4.2c0.4,0.6,0.7,1.8,0.4,2.1c-0.5,0.5-1.6,0.9-2.3,0.8c-1.9-0.4-3.9-1.1-5.7-1.8
		c-1.9-0.8-3.7-0.8-4.8,1.1c-1.1,2-0.6,4.1,1.3,5.1c3,1.7,6.2,3.2,9.6,4s2.5,3.1,2.8,5.2c0.3,2.2-1.3,2.2-2.6,2.7
		c-2,0.8-3.8,1.9-6.5,3.2c2.8,1.8,5,3.3,7.4,4.5c1.3,0.7,1.9,1.5,1.8,3.1c-0.1,2,0.6,4.4-0.2,5.9c-0.8,1.5-3.1,2.2-5,3.4
		c1.2,0.7,2.1,1.4,3.2,1.9c1.7,0.7,2.3,1.8,2.4,3.6c0.2,2.6-0.3,4.3-3.1,5c-1.2,0.3-2.2,1.5-3.7,2.6c1.6,1,2.8,1.8,4.1,2.5
		c3.6,1.9,4.1,6.2,1.7,8.3c0.5,2.1,0.9,3.8,1.2,5.5C116.5,925.5,113.4,925,112.3,926.9z"/>
	<path class="st1" d="M119.5,936.6c-0.1-1.2-0.2-2.5-0.3-3.7c-0.3-21.8-0.7-43.5-1-65.3c-0.2-12.2-0.4-24.3-0.5-36.5
		c0-1.7-0.2-3-2-4.1c-2.7-1.6-3.5-4.9-2.6-7.9c0.9-2.8,3.6-4.7,6.6-4.7c3.1,0,5.8,1.8,6.7,4.5c1.1,3,0.2,6.4-2.5,8.1
		c-1.6,1-1.9,2.2-1.9,3.9c-0.4,33.1-0.9,66.3-1.3,99.4c0,2.1-0.2,4.2-0.3,6.3C120.1,936.6,119.8,936.6,119.5,936.6z"/>
	<circle class="st2" cx="120.2" cy="869" r="80.5"/>
</g>
<g>
	<line class="st3" x1="45.4" y1="1019.1" x2="58.8" y2="1061.5"/>
	<line class="st3" x1="45.4" y1="1019.1" x2="35.7" y2="1046.7"/>
	<line class="st3" x1="70.6" y1="1032" x2="59.2" y2="1061.3"/>
	<line class="st3" x1="35.6" y1="1046.9" x2="11.5" y2="1046.5"/>
	<line class="st3" x1="70.6" y1="1032" x2="74.2" y2="1046.7"/>
	<line class="st3" x1="97.8" y1="1046.9" x2="73.7" y2="1046.5"/>
	<line class="st3" x1="45.4" y1="1019.1" x2="58.8" y2="1061.5"/>
	<line class="st3" x1="45.4" y1="1019.1" x2="35.7" y2="1046.7"/>
	<line class="st3" x1="70.6" y1="1032" x2="59.2" y2="1061.3"/>
	<line class="st3" x1="35.6" y1="1046.9" x2="11.5" y2="1046.5"/>
	<line class="st3" x1="70.6" y1="1032" x2="74.2" y2="1046.7"/>
	<line class="st3" x1="97.8" y1="1046.9" x2="73.7" y2="1046.5"/>
</g>
<g>
	<line class="st3" x1="119.6" y1="1019.1" x2="133" y2="1061.5"/>
	<line class="st3" x1="119.6" y1="1019.1" x2="109.9" y2="1046.7"/>
	<line class="st3" x1="144.8" y1="1032" x2="133.4" y2="1061.3"/>
	<line class="st3" x1="109.8" y1="1046.9" x2="85.8" y2="1046.5"/>
	<line class="st3" x1="144.8" y1="1032" x2="148.5" y2="1046.7"/>
	<line class="st3" x1="172" y1="1046.9" x2="147.9" y2="1046.5"/>
	<line class="st3" x1="119.6" y1="1019.1" x2="133" y2="1061.5"/>
	<line class="st3" x1="119.6" y1="1019.1" x2="109.9" y2="1046.7"/>
	<line class="st3" x1="144.8" y1="1032" x2="133.4" y2="1061.3"/>
	<line class="st3" x1="109.8" y1="1046.9" x2="85.8" y2="1046.5"/>
	<line class="st3" x1="144.8" y1="1032" x2="148.5" y2="1046.7"/>
	<line class="st3" x1="172" y1="1046.9" x2="147.9" y2="1046.5"/>
</g>
<g>
	<line class="st3" x1="268" y1="1019.1" x2="281.4" y2="1061.5"/>
	<line class="st3" x1="268" y1="1019.1" x2="258.4" y2="1046.7"/>
	<line class="st3" x1="293.3" y1="1032" x2="281.8" y2="1061.3"/>
	<line class="st3" x1="258.3" y1="1046.9" x2="234.2" y2="1046.5"/>
	<line class="st3" x1="293.3" y1="1032" x2="296.9" y2="1046.7"/>
	<line class="st3" x1="320.5" y1="1046.9" x2="296.4" y2="1046.5"/>
	<line class="st3" x1="268" y1="1019.1" x2="281.4" y2="1061.5"/>
	<line class="st3" x1="268" y1="1019.1" x2="258.4" y2="1046.7"/>
	<line class="st3" x1="293.3" y1="1032" x2="281.8" y2="1061.3"/>
	<line class="st3" x1="258.3" y1="1046.9" x2="234.2" y2="1046.5"/>
	<line class="st3" x1="293.3" y1="1032" x2="296.9" y2="1046.7"/>
	<line class="st3" x1="320.5" y1="1046.9" x2="296.4" y2="1046.5"/>
</g>
<g>
	<line class="st3" x1="193.8" y1="1019.1" x2="207.2" y2="1061.5"/>
	<line class="st3" x1="193.8" y1="1019.1" x2="184.1" y2="1046.7"/>
	<line class="st3" x1="219" y1="1032" x2="207.6" y2="1061.3"/>
	<line class="st3" x1="184.1" y1="1046.9" x2="160" y2="1046.5"/>
	<line class="st3" x1="219" y1="1032" x2="222.7" y2="1046.7"/>
	<line class="st3" x1="246.2" y1="1046.9" x2="222.2" y2="1046.5"/>
	<line class="st3" x1="193.8" y1="1019.1" x2="207.2" y2="1061.5"/>
	<line class="st3" x1="193.8" y1="1019.1" x2="184.1" y2="1046.7"/>
	<line class="st3" x1="219" y1="1032" x2="207.6" y2="1061.3"/>
	<line class="st3" x1="184.1" y1="1046.9" x2="160" y2="1046.5"/>
	<line class="st3" x1="219" y1="1032" x2="222.7" y2="1046.7"/>
	<line class="st3" x1="246.2" y1="1046.9" x2="222.2" y2="1046.5"/>
</g>
<g>
	<line class="st3" x1="342.2" y1="1019.1" x2="355.6" y2="1061.5"/>
	<line class="st3" x1="342.2" y1="1019.1" x2="332.6" y2="1046.7"/>
	<line class="st3" x1="367.5" y1="1032" x2="356" y2="1061.3"/>
	<line class="st3" x1="332.5" y1="1046.9" x2="308.4" y2="1046.5"/>
	<line class="st3" x1="367.5" y1="1032" x2="371.1" y2="1046.7"/>
	<line class="st3" x1="394.7" y1="1046.9" x2="370.6" y2="1046.5"/>
	<line class="st3" x1="342.2" y1="1019.1" x2="355.6" y2="1061.5"/>
	<line class="st3" x1="342.2" y1="1019.1" x2="332.6" y2="1046.7"/>
	<line class="st3" x1="367.5" y1="1032" x2="356" y2="1061.3"/>
	<line class="st3" x1="332.5" y1="1046.9" x2="308.4" y2="1046.5"/>
	<line class="st3" x1="367.5" y1="1032" x2="371.1" y2="1046.7"/>
	<line class="st3" x1="394.7" y1="1046.9" x2="370.6" y2="1046.5"/>
</g>
<g>
	<line class="st3" x1="416.5" y1="1019.1" x2="429.8" y2="1061.5"/>
	<line class="st3" x1="416.5" y1="1019.1" x2="406.8" y2="1046.7"/>
	<line class="st3" x1="441.7" y1="1032" x2="430.2" y2="1061.3"/>
	<line class="st3" x1="406.7" y1="1046.9" x2="382.6" y2="1046.5"/>
	<line class="st3" x1="441.7" y1="1032" x2="445.3" y2="1046.7"/>
	<line class="st3" x1="468.9" y1="1046.9" x2="444.8" y2="1046.5"/>
	<line class="st3" x1="416.5" y1="1019.1" x2="429.8" y2="1061.5"/>
	<line class="st3" x1="416.5" y1="1019.1" x2="406.8" y2="1046.7"/>
	<line class="st3" x1="441.7" y1="1032" x2="430.2" y2="1061.3"/>
	<line class="st3" x1="406.7" y1="1046.9" x2="382.6" y2="1046.5"/>
	<line class="st3" x1="441.7" y1="1032" x2="445.3" y2="1046.7"/>
	<line class="st3" x1="468.9" y1="1046.9" x2="444.8" y2="1046.5"/>
</g>
<line class="st3" x1="468.9" y1="1000" x2="468.9" y2="1078.7"/>
<line class="st3" x1="14.3" y1="999.4" x2="14.3" y2="1078.2"/>
</svg>
