<svg id="Layer_1" data-name="Layer 1" xmlns="http://www.w3.org/2000/svg" viewBox="0 0 1920 1080"><defs><style>.cls-1{fill:#57dadd;}.cls-2,.cls-3,.cls-5,.cls-6{fill:#fff;}.cls-3,.cls-4{stroke:#fff;}.cls-3,.cls-4,.cls-5,.cls-6,.cls-7,.cls-8{stroke-miterlimit:10;}.cls-3,.cls-6{stroke-width:3px;}.cls-4,.cls-7,.cls-8{fill:none;}.cls-4,.cls-7{stroke-width:2px;}.cls-5,.cls-6,.cls-7,.cls-8{stroke:#9fffa6;}</style></defs><title>organization</title><path class="cls-1" d="M1089.11,1036.64c41.5-2.83,164.76-17.72,230-34l133.1-46.34C1510.89,943.94,1631,921,1686.83,844l19.5-124c1.08-3.16,11.53,0,0,0l31.54-243.06a14.79,14.79,0,0,0,.12-1.9c0-24.43-.1-.48,0-1.33,1-15.71,0,1.29,0-1.71,0-29.64,1.14-52-1.69-72.52L1722.3,159l6.7,259c0,3-6,3-6,0,0-64.48-42.18-222.62-50-255-3.27-13.52-3-14-10-32L1613.82,0H1920V1080H938.1l41.45-17c23.54-18.81,43.54-16.26,53.42-18.81"/><circle class="cls-2" cx="1824.45" cy="756.46" r="8.91"/><path class="cls-2" d="M1838.16,798.41h-26.23a1.2,1.2,0,0,1-1.09-1.29V772c0-4.16,2.85-7.13,6.33-6.6h0l4.6,1.42a7.93,7.93,0,0,0,4.25.13l5.12-1.25a5.75,5.75,0,0,1,6.07,2.31,8.32,8.32,0,0,1,1.52,4.88v24.87A.63.63,0,0,1,1838.16,798.41Z"/><path class="cls-2" d="M1816.5,783.51h0a1,1,0,0,1,1,1v13.85a.09.09,0,0,1-.09.09h-1.82a0,0,0,0,1,0,0V784.47A1,1,0,0,1,1816.5,783.51Z"/><path class="cls-2" d="M1833.84,783.51h0a1,1,0,0,1,1,1v13.94a0,0,0,0,1,0,0H1833a.11.11,0,0,1-.11-.11V784.47a1,1,0,0,1,1-1Z"/><circle class="cls-2" cx="1792.94" cy="819.99" r="6.74"/><path class="cls-2" d="M1803.32,851.73h-19.84a.91.91,0,0,1-.82-1v-19c0-3.14,2.15-5.39,4.79-5h0l3.48,1.08a6,6,0,0,0,3.21.1L1798,827a4.35,4.35,0,0,1,4.59,1.75,6.3,6.3,0,0,1,1.15,3.69v18.81A.48.48,0,0,1,1803.32,851.73Z"/><path class="cls-2" d="M1786.93,840.45h0a.72.72,0,0,1,.72.72v10.48a.07.07,0,0,1-.07.07h-1.38a0,0,0,0,1,0,0V841.18A.72.72,0,0,1,1786.93,840.45Z"/><path class="cls-2" d="M1800.05,840.45h0a.72.72,0,0,1,.72.72v10.55a0,0,0,0,1,0,0h-1.36a.08.08,0,0,1-.08-.08V841.18A.72.72,0,0,1,1800.05,840.45Z"/><circle class="cls-2" cx="1825.83" cy="819.99" r="6.74"/><path class="cls-2" d="M1836.2,851.73h-19.84a.91.91,0,0,1-.82-1v-19c0-3.14,2.15-5.39,4.79-5h0l3.48,1.08a6,6,0,0,0,3.21.1l3.87-.94a4.35,4.35,0,0,1,4.59,1.75,6.3,6.3,0,0,1,1.15,3.69v18.81A.48.48,0,0,1,1836.2,851.73Z"/><path class="cls-2" d="M1819.82,840.45h0a.72.72,0,0,1,.72.72v10.48a.07.07,0,0,1-.07.07h-1.38a0,0,0,0,1,0,0V841.18a.72.72,0,0,1,.72-.72Z"/><path class="cls-2" d="M1832.94,840.45h0a.72.72,0,0,1,.72.72v10.55a0,0,0,0,1,0,0h-1.36a.08.08,0,0,1-.08-.08V841.18A.72.72,0,0,1,1832.94,840.45Z"/><circle class="cls-2" cx="1858.69" cy="820.25" r="6.74"/><path class="cls-2" d="M1868.8,852H1849a.91.91,0,0,1-.82-1V832c0-3.14,2.15-5.39,4.79-5h0l3.48,1.08a6,6,0,0,0,3.21.1l3.87-.94a4.35,4.35,0,0,1,4.59,1.75,6.3,6.3,0,0,1,1.15,3.69v18.81A.48.48,0,0,1,1868.8,852Z"/><path class="cls-2" d="M1852.68,840.71h0a.72.72,0,0,1,.72.72v10.48a.07.07,0,0,1-.07.07H1852a0,0,0,0,1,0,0V841.44A.72.72,0,0,1,1852.68,840.71Z"/><path class="cls-2" d="M1865.8,840.71h0a.72.72,0,0,1,.72.72V852a0,0,0,0,1,0,0h-1.36a.08.08,0,0,1-.08-.08V841.44A.72.72,0,0,1,1865.8,840.71Z"/><line class="cls-3" x1="1788.59" y1="803.47" x2="1856.42" y2="803.47"/><line class="cls-3" x1="1789.04" y1="802.43" x2="1789.04" y2="807.92"/><line class="cls-3" x1="1824.79" y1="803.47" x2="1824.79" y2="807.92"/><line class="cls-3" x1="1855.45" y1="802.52" x2="1855.45" y2="808.3"/><circle class="cls-4" cx="1822.68" cy="801.19" r="80.5"/><circle class="cls-5" cx="1702.02" cy="898.44" r="4.96"/><path class="cls-5" d="M1709.66,921.8h-14.6a.67.67,0,0,1-.61-.72v-14c0-2.31,1.59-4,3.52-3.67h0l2.56.79a4.42,4.42,0,0,0,2.36.07l2.85-.69a3.2,3.2,0,0,1,3.38,1.29,4.63,4.63,0,0,1,.85,2.72v13.85A.35.35,0,0,1,1709.66,921.8Z"/><path class="cls-5" d="M1697.46,913.5h.26a.4.4,0,0,1,.4.4v7.85a0,0,0,0,1,0,0h-1a0,0,0,0,1,0,0v-7.89A.4.4,0,0,1,1697.46,913.5Z"/><path class="cls-5" d="M1707.12,913.5h.26a.4.4,0,0,1,.4.4v7.89a0,0,0,0,1,0,0h-1a0,0,0,0,1,0,0v-7.85a.4.4,0,0,1,.4-.4Z"/><circle class="cls-5" cx="1684.48" cy="933.82" r="3.75"/><path class="cls-5" d="M1690.25,951.49h-11a.51.51,0,0,1-.46-.54v-10.6c0-1.75,1.2-3,2.66-2.78h0l1.94.6a3.34,3.34,0,0,0,1.79.06l2.15-.53a2.42,2.42,0,0,1,2.56,1,3.51,3.51,0,0,1,.64,2.05V951.2A.27.27,0,0,1,1690.25,951.49Z"/><path class="cls-5" d="M1681,945.21h.2a.31.31,0,0,1,.31.31v5.94a0,0,0,0,1,0,0h-.78a0,0,0,0,1,0,0v-6A.31.31,0,0,1,1681,945.21Z"/><path class="cls-5" d="M1688.34,945.21h.2a.31.31,0,0,1,.31.31v6a0,0,0,0,1,0,0h-.77a0,0,0,0,1,0,0v-5.94A.31.31,0,0,1,1688.34,945.21Z"/><circle class="cls-5" cx="1702.79" cy="933.82" r="3.75"/><path class="cls-5" d="M1708.56,951.49h-11a.51.51,0,0,1-.46-.54v-10.6c0-1.75,1.2-3,2.66-2.78h0l1.94.6a3.34,3.34,0,0,0,1.79.06l2.15-.53a2.42,2.42,0,0,1,2.56,1,3.51,3.51,0,0,1,.64,2.05V951.2A.27.27,0,0,1,1708.56,951.49Z"/><path class="cls-5" d="M1699.34,945.21h.2a.31.31,0,0,1,.31.31v5.94a0,0,0,0,1,0,0H1699a0,0,0,0,1,0,0v-6A.31.31,0,0,1,1699.34,945.21Z"/><path class="cls-5" d="M1706.65,945.21h.2a.31.31,0,0,1,.31.31v6a0,0,0,0,1,0,0h-.77a0,0,0,0,1,0,0v-5.94A.31.31,0,0,1,1706.65,945.21Z"/><circle class="cls-5" cx="1721.08" cy="933.96" r="3.75"/><path class="cls-5" d="M1726.72,951.63h-11a.51.51,0,0,1-.46-.54v-10.6c0-1.75,1.2-3,2.66-2.78h0l1.94.6a3.34,3.34,0,0,0,1.79.06l2.15-.53a2.42,2.42,0,0,1,2.56,1,3.51,3.51,0,0,1,.64,2.05v10.48A.27.27,0,0,1,1726.72,951.63Z"/><path class="cls-5" d="M1717.64,945.36h.2a.31.31,0,0,1,.31.31v5.94a0,0,0,0,1,0,0h-.78a0,0,0,0,1,0,0v-6A.31.31,0,0,1,1717.64,945.36Z"/><path class="cls-5" d="M1724.95,945.36h.2a.31.31,0,0,1,.31.31v6a0,0,0,0,1,0,0h-.77a0,0,0,0,1,0,0v-5.94a.31.31,0,0,1,.31-.31Z"/><line class="cls-6" x1="1682.05" y1="924.62" x2="1719.82" y2="924.62"/><line class="cls-6" x1="1682.31" y1="924.04" x2="1682.31" y2="927.09"/><line class="cls-6" x1="1702.21" y1="924.62" x2="1702.21" y2="927.09"/><line class="cls-6" x1="1719.28" y1="924.09" x2="1719.28" y2="927.31"/><circle class="cls-7" cx="1701.04" cy="923.35" r="44.82"/><line class="cls-8" x1="1772.57" y1="863.46" x2="1728.2" y2="888.48"/><line class="cls-8" x1="1658.07" y1="934.56" x2="1602.26" y2="955.1"/><circle class="cls-5" cx="1836.13" cy="927.69" r="4.96"/><path class="cls-5" d="M1843.76,951h-14.6a.67.67,0,0,1-.61-.72v-14c0-2.31,1.59-4,3.52-3.67h0l2.56.79a4.42,4.42,0,0,0,2.36.07l2.85-.69a3.2,3.2,0,0,1,3.38,1.29,4.63,4.63,0,0,1,.85,2.72v13.85A.35.35,0,0,1,1843.76,951Z"/><path class="cls-5" d="M1831.57,942.75h.26a.4.4,0,0,1,.4.4V951a0,0,0,0,1,0,0h-1a0,0,0,0,1,0,0v-7.89A.4.4,0,0,1,1831.57,942.75Z"/><path class="cls-5" d="M1841.23,942.75h.26a.4.4,0,0,1,.4.4V951a0,0,0,0,1,0,0h-1a0,0,0,0,1,0,0v-7.85A.4.4,0,0,1,1841.23,942.75Z"/><circle class="cls-5" cx="1818.58" cy="963.07" r="3.75"/><path class="cls-5" d="M1824.36,980.74h-11a.51.51,0,0,1-.46-.54V969.6c0-1.75,1.2-3,2.66-2.78h0l1.94.6a3.34,3.34,0,0,0,1.79.06l2.15-.53a2.42,2.42,0,0,1,2.56,1,3.51,3.51,0,0,1,.64,2.05v10.48A.27.27,0,0,1,1824.36,980.74Z"/><path class="cls-5" d="M1815.14,974.46h.2a.31.31,0,0,1,.31.31v5.94a0,0,0,0,1,0,0h-.78a0,0,0,0,1,0,0v-6A.31.31,0,0,1,1815.14,974.46Z"/><path class="cls-5" d="M1822.44,974.46h.2a.31.31,0,0,1,.31.31v6a0,0,0,0,1,0,0h-.77a0,0,0,0,1,0,0v-5.94a.31.31,0,0,1,.31-.31Z"/><circle class="cls-5" cx="1836.89" cy="963.07" r="3.75"/><path class="cls-5" d="M1842.67,980.74h-11a.51.51,0,0,1-.46-.54V969.6c0-1.75,1.2-3,2.66-2.78h0l1.94.6a3.34,3.34,0,0,0,1.79.06l2.15-.53a2.42,2.42,0,0,1,2.56,1,3.51,3.51,0,0,1,.64,2.05v10.48A.27.27,0,0,1,1842.67,980.74Z"/><path class="cls-5" d="M1833.45,974.46h.2a.31.31,0,0,1,.31.31v5.94a0,0,0,0,1,0,0h-.78a0,0,0,0,1,0,0v-6A.31.31,0,0,1,1833.45,974.46Z"/><path class="cls-5" d="M1840.76,974.46h.2a.31.31,0,0,1,.31.31v6a0,0,0,0,1,0,0h-.77a0,0,0,0,1,0,0v-5.94A.31.31,0,0,1,1840.76,974.46Z"/><circle class="cls-5" cx="1855.19" cy="963.21" r="3.75"/><path class="cls-5" d="M1860.82,980.88h-11a.51.51,0,0,1-.46-.54v-10.6c0-1.75,1.2-3,2.66-2.78h0l1.94.6a3.34,3.34,0,0,0,1.79.06l2.15-.53a2.42,2.42,0,0,1,2.56,1,3.51,3.51,0,0,1,.64,2.05v10.48A.27.27,0,0,1,1860.82,980.88Z"/><path class="cls-5" d="M1851.75,974.6h.2a.31.31,0,0,1,.31.31v5.94a0,0,0,0,1,0,0h-.78a0,0,0,0,1,0,0v-6A.31.31,0,0,1,1851.75,974.6Z"/><path class="cls-5" d="M1859.05,974.6h.2a.31.31,0,0,1,.31.31v6a0,0,0,0,1,0,0h-.77a0,0,0,0,1,0,0v-5.94a.31.31,0,0,1,.31-.31Z"/><line class="cls-6" x1="1816.16" y1="953.87" x2="1853.93" y2="953.87"/><line class="cls-6" x1="1816.41" y1="953.29" x2="1816.41" y2="956.34"/><line class="cls-6" x1="1836.32" y1="953.87" x2="1836.32" y2="956.34"/><line class="cls-6" x1="1853.39" y1="953.34" x2="1853.39" y2="956.56"/><circle class="cls-7" cx="1835.14" cy="952.59" r="44.82"/><circle class="cls-5" cx="1568.15" cy="948.76" r="3.86"/><path class="cls-5" d="M1574.1,966.93h-11.36a.52.52,0,0,1-.47-.56v-10.9c0-1.8,1.23-3.09,2.74-2.86h0l2,.62a3.44,3.44,0,0,0,1.84.06l2.22-.54a2.49,2.49,0,0,1,2.63,1,3.6,3.6,0,0,1,.66,2.11v10.77A.27.27,0,0,1,1574.1,966.93Z"/><path class="cls-5" d="M1564.7,960.48h0a.4.4,0,0,1,.4.4v6a0,0,0,0,1,0,0h-.79a0,0,0,0,1,0,0v-6.05A.4.4,0,0,1,1564.7,960.48Z"/><path class="cls-5" d="M1572.21,960.48h0a.4.4,0,0,1,.4.4v6.05a0,0,0,0,1,0,0h-.78a0,0,0,0,1,0,0v-6A.4.4,0,0,1,1572.21,960.48Z"/><circle class="cls-5" cx="1554.51" cy="976.28" r="2.92"/><path class="cls-5" d="M1559,990h-8.59a.39.39,0,0,1-.36-.42v-8.24c0-1.36.93-2.33,2.07-2.16h0l1.51.47a2.6,2.6,0,0,0,1.39,0l1.68-.41a1.88,1.88,0,0,1,2,.76,2.73,2.73,0,0,1,.5,1.6v8.15A.21.21,0,0,1,1559,990Z"/><path class="cls-5" d="M1551.9,985.14h0a.31.31,0,0,1,.31.31V990a0,0,0,0,1,0,0h-.6a0,0,0,0,1,0,0v-4.58a.31.31,0,0,1,.31-.31Z"/><path class="cls-5" d="M1557.58,985.14h0a.31.31,0,0,1,.31.31V990a0,0,0,0,1,0,0h-.59a0,0,0,0,1,0,0v-4.54A.31.31,0,0,1,1557.58,985.14Z"/><circle class="cls-5" cx="1568.75" cy="976.28" r="2.92"/><path class="cls-5" d="M1573.25,990h-8.59a.39.39,0,0,1-.36-.42v-8.24c0-1.36.93-2.33,2.07-2.16h0l1.51.47a2.6,2.6,0,0,0,1.39,0l1.68-.41a1.88,1.88,0,0,1,2,.76,2.73,2.73,0,0,1,.5,1.6v8.15A.21.21,0,0,1,1573.25,990Z"/><path class="cls-5" d="M1566.14,985.14h0a.31.31,0,0,1,.31.31V990a0,0,0,0,1,0,0h-.6a0,0,0,0,1,0,0v-4.58A.31.31,0,0,1,1566.14,985.14Z"/><path class="cls-5" d="M1571.82,985.14h0a.31.31,0,0,1,.31.31V990a0,0,0,0,1,0,0h-.59a0,0,0,0,1,0,0v-4.54A.31.31,0,0,1,1571.82,985.14Z"/><circle class="cls-5" cx="1582.99" cy="976.39" r="2.92"/><path class="cls-5" d="M1587.37,990.14h-8.59a.39.39,0,0,1-.36-.42v-8.24c0-1.36.93-2.33,2.07-2.16h0l1.51.47a2.6,2.6,0,0,0,1.39,0l1.68-.41a1.88,1.88,0,0,1,2,.76,2.73,2.73,0,0,1,.5,1.6v8.15A.21.21,0,0,1,1587.37,990.14Z"/><path class="cls-5" d="M1580.37,985.26h0a.31.31,0,0,1,.31.31v4.55a0,0,0,0,1,0,0h-.6a0,0,0,0,1,0,0v-4.58A.31.31,0,0,1,1580.37,985.26Z"/><path class="cls-5" d="M1586.06,985.26h0a.31.31,0,0,1,.31.31v4.58a0,0,0,0,1,0,0h-.59a0,0,0,0,1,0,0v-4.54A.31.31,0,0,1,1586.06,985.26Z"/><line class="cls-6" x1="1552.62" y1="969.13" x2="1582" y2="969.13"/><line class="cls-6" x1="1552.82" y1="968.68" x2="1552.82" y2="971.05"/><line class="cls-6" x1="1568.3" y1="969.13" x2="1568.3" y2="971.05"/><line class="cls-6" x1="1581.58" y1="968.71" x2="1581.58" y2="971.22"/><circle class="cls-7" cx="1567.39" cy="968.14" r="34.86"/><circle class="cls-5" cx="1767.29" cy="1021.7" r="3.86"/><path class="cls-5" d="M1773.23,1039.87h-11.36a.52.52,0,0,1-.47-.56v-10.9c0-1.8,1.23-3.09,2.74-2.86h0l2,.62a3.44,3.44,0,0,0,1.84.06l2.22-.54a2.49,2.49,0,0,1,2.63,1,3.6,3.6,0,0,1,.66,2.11v10.77A.27.27,0,0,1,1773.23,1039.87Z"/><path class="cls-5" d="M1763.84,1033.41h0a.4.4,0,0,1,.4.4v6a0,0,0,0,1,0,0h-.79a0,0,0,0,1,0,0v-6.05a.4.4,0,0,1,.4-.4Z"/><path class="cls-5" d="M1771.35,1033.41h0a.4.4,0,0,1,.4.4v6.05a0,0,0,0,1,0,0H1771a0,0,0,0,1,0,0v-6A.4.4,0,0,1,1771.35,1033.41Z"/><circle class="cls-5" cx="1753.65" cy="1049.21" r="2.92"/><path class="cls-5" d="M1758.14,1063h-8.59a.39.39,0,0,1-.36-.42v-8.24c0-1.36.93-2.33,2.07-2.16h0l1.51.47a2.6,2.6,0,0,0,1.39,0l1.68-.41a1.88,1.88,0,0,1,2,.76,2.73,2.73,0,0,1,.5,1.6v8.15A.21.21,0,0,1,1758.14,1063Z"/><path class="cls-5" d="M1751,1058.08h0a.31.31,0,0,1,.31.31v4.55a0,0,0,0,1,0,0h-.6a0,0,0,0,1,0,0v-4.58a.31.31,0,0,1,.31-.31Z"/><path class="cls-5" d="M1756.72,1058.08h0a.31.31,0,0,1,.31.31V1063a0,0,0,0,1,0,0h-.59a0,0,0,0,1,0,0v-4.54a.31.31,0,0,1,.31-.31Z"/><circle class="cls-5" cx="1767.89" cy="1049.21" r="2.92"/><path class="cls-5" d="M1772.39,1063h-8.59a.39.39,0,0,1-.36-.42v-8.24c0-1.36.93-2.33,2.07-2.16h0l1.51.47a2.6,2.6,0,0,0,1.39,0l1.68-.41a1.88,1.88,0,0,1,2,.76,2.73,2.73,0,0,1,.5,1.6v8.15A.21.21,0,0,1,1772.39,1063Z"/><path class="cls-5" d="M1765.28,1058.08h0a.31.31,0,0,1,.31.31v4.55a0,0,0,0,1,0,0h-.6a0,0,0,0,1,0,0v-4.58a.31.31,0,0,1,.31-.31Z"/><path class="cls-5" d="M1771,1058.08h0a.31.31,0,0,1,.31.31V1063a0,0,0,0,1,0,0h-.59a0,0,0,0,1,0,0v-4.54a.31.31,0,0,1,.31-.31Z"/><circle class="cls-5" cx="1782.12" cy="1049.33" r="2.92"/><path class="cls-5" d="M1786.51,1063.07h-8.59a.39.39,0,0,1-.36-.42v-8.24c0-1.36.93-2.33,2.07-2.16h0l1.51.47a2.6,2.6,0,0,0,1.39,0l1.68-.41a1.88,1.88,0,0,1,2,.76,2.73,2.73,0,0,1,.5,1.6v8.15A.21.21,0,0,1,1786.51,1063.07Z"/><path class="cls-5" d="M1779.51,1058.19h0a.31.31,0,0,1,.31.31V1063a0,0,0,0,1,0,0h-.6a0,0,0,0,1,0,0v-4.58A.31.31,0,0,1,1779.51,1058.19Z"/><path class="cls-5" d="M1785.19,1058.19h0a.31.31,0,0,1,.31.31v4.58a0,0,0,0,1,0,0h-.59a0,0,0,0,1,0,0v-4.54A.31.31,0,0,1,1785.19,1058.19Z"/><line class="cls-6" x1="1751.76" y1="1042.06" x2="1781.14" y2="1042.06"/><line class="cls-6" x1="1751.96" y1="1041.61" x2="1751.96" y2="1043.98"/><line class="cls-6" x1="1767.44" y1="1042.06" x2="1767.44" y2="1043.98"/><line class="cls-6" x1="1780.72" y1="1041.65" x2="1780.72" y2="1044.15"/><circle class="cls-7" cx="1766.53" cy="1041.07" r="34.86"/><circle class="cls-5" cx="1649.37" cy="1021.7" r="3.86"/><path class="cls-5" d="M1655.31,1039.87H1644a.52.52,0,0,1-.47-.56v-10.9c0-1.8,1.23-3.09,2.74-2.86h0l2,.62a3.44,3.44,0,0,0,1.84.06l2.22-.54a2.49,2.49,0,0,1,2.63,1,3.6,3.6,0,0,1,.66,2.11v10.77A.27.27,0,0,1,1655.31,1039.87Z"/><path class="cls-5" d="M1645.92,1033.41h0a.4.4,0,0,1,.4.4v6a0,0,0,0,1,0,0h-.79a0,0,0,0,1,0,0v-6.05a.4.4,0,0,1,.4-.4Z"/><path class="cls-5" d="M1653.43,1033.41h0a.4.4,0,0,1,.4.4v6.05a0,0,0,0,1,0,0h-.78a0,0,0,0,1,0,0v-6a.4.4,0,0,1,.4-.4Z"/><circle class="cls-5" cx="1635.73" cy="1049.21" r="2.92"/><path class="cls-5" d="M1640.22,1063h-8.59a.39.39,0,0,1-.36-.42v-8.24c0-1.36.93-2.33,2.07-2.16h0l1.51.47a2.6,2.6,0,0,0,1.39,0l1.68-.41a1.88,1.88,0,0,1,2,.76,2.73,2.73,0,0,1,.5,1.6v8.15A.21.21,0,0,1,1640.22,1063Z"/><path class="cls-5" d="M1633.11,1058.08h0a.31.31,0,0,1,.31.31v4.55a0,0,0,0,1,0,0h-.6a0,0,0,0,1,0,0v-4.58a.31.31,0,0,1,.31-.31Z"/><path class="cls-5" d="M1638.8,1058.08h0a.31.31,0,0,1,.31.31V1063a0,0,0,0,1,0,0h-.59a0,0,0,0,1,0,0v-4.54A.31.31,0,0,1,1638.8,1058.08Z"/><circle class="cls-5" cx="1649.97" cy="1049.21" r="2.92"/><path class="cls-5" d="M1654.46,1063h-8.59a.39.39,0,0,1-.36-.42v-8.24c0-1.36.93-2.33,2.07-2.16h0l1.51.47a2.6,2.6,0,0,0,1.39,0l1.68-.41a1.88,1.88,0,0,1,2,.76,2.73,2.73,0,0,1,.5,1.6v8.15A.21.21,0,0,1,1654.46,1063Z"/><path class="cls-5" d="M1647.36,1058.08h0a.31.31,0,0,1,.31.31v4.55a0,0,0,0,1,0,0h-.6a0,0,0,0,1,0,0v-4.58a.31.31,0,0,1,.31-.31Z"/><path class="cls-5" d="M1653,1058.08h0a.31.31,0,0,1,.31.31V1063a0,0,0,0,1,0,0h-.59a0,0,0,0,1,0,0v-4.54a.31.31,0,0,1,.31-.31Z"/><circle class="cls-5" cx="1664.2" cy="1049.33" r="2.92"/><path class="cls-5" d="M1668.58,1063.07H1660a.39.39,0,0,1-.36-.42v-8.24c0-1.36.93-2.33,2.07-2.16h0l1.51.47a2.6,2.6,0,0,0,1.39,0l1.68-.41a1.88,1.88,0,0,1,2,.76,2.73,2.73,0,0,1,.5,1.6v8.15A.21.21,0,0,1,1668.58,1063.07Z"/><path class="cls-5" d="M1661.59,1058.19h0a.31.31,0,0,1,.31.31V1063a0,0,0,0,1,0,0h-.6a0,0,0,0,1,0,0v-4.58A.31.31,0,0,1,1661.59,1058.19Z"/><path class="cls-5" d="M1667.27,1058.19h0a.31.31,0,0,1,.31.31v4.58a0,0,0,0,1,0,0H1667a0,0,0,0,1,0,0v-4.54a.31.31,0,0,1,.31-.31Z"/><line class="cls-6" x1="1633.84" y1="1042.06" x2="1663.22" y2="1042.06"/><line class="cls-6" x1="1634.04" y1="1041.61" x2="1634.04" y2="1043.98"/><line class="cls-6" x1="1649.52" y1="1042.06" x2="1649.52" y2="1043.98"/><line class="cls-6" x1="1662.8" y1="1041.65" x2="1662.8" y2="1044.15"/><circle class="cls-7" cx="1648.61" cy="1041.07" r="34.86"/><line class="cls-8" x1="1812.51" y1="991.29" x2="1788.59" y2="1014.07"/><line class="cls-8" x1="1618.59" y1="1021.08" x2="1585.84" y2="999.16"/><line class="cls-8" x1="1658.07" y1="934.56" x2="1600.05" y2="955.92"/><line class="cls-8" x1="1690.36" y1="966.96" x2="1662.59" y2="1007.69"/><line class="cls-8" x1="1722.7" y1="963.71" x2="1749.19" y2="1010.12"/><line class="cls-8" x1="1745.86" y1="934.02" x2="1791.42" y2="942.75"/><line class="cls-8" x1="1825.76" y1="881.27" x2="1835.14" y2="907.77"/><line class="cls-8" x1="1731.67" y1="1046.3" x2="1682.48" y2="1048.64"/></svg>